<?xml version="1.0" encoding="UTF-8"?>
<svg version="1.1" xmlns="http://www.w3.org/2000/svg" width="1024" height="1024">
<path d="M0 0 C337.92 0 675.84 0 1024 0 C1024 337.92 1024 675.84 1024 1024 C686.08 1024 348.16 1024 0 1024 C0 686.08 0 348.16 0 0 Z " fill="#080D12" transform="translate(0,0)"/>
<path d="M0 0 C2.71597862 1.31524083 5.35679685 2.70240546 7.98852539 4.17944336 C9.01349121 4.753479 10.03845703 5.32751465 11.09448242 5.91894531 C12.17842285 6.53084717 13.26236328 7.14274902 14.37915039 7.77319336 C15.49789551 8.40249756 16.61664062 9.03180176 17.76928711 9.68017578 C28.02113178 15.46294666 38.18674701 21.37964925 48.26196289 27.46459961 C55.2493881 31.68392217 62.28075362 35.80523076 69.37915039 39.83569336 C77.54075012 44.47060202 85.62826054 49.21963282 93.69165039 54.02319336 C106.48265007 61.63764769 119.38565631 69.04228312 132.32788086 76.39648438 C141.87568014 81.8242268 151.4013663 87.28625555 160.87915039 92.83569336 C169.40655694 97.81891769 177.94762374 102.77763662 186.50415039 107.71069336 C187.57544189 108.328396 188.6467334 108.94609863 189.75048828 109.58251953 C195.3398109 112.80405882 200.93113185 116.02210385 206.52368164 119.23803711 C225.79929181 130.32956626 225.79929181 130.32956626 233.12915039 134.77319336 C241.06573694 139.58269166 249.12222618 144.18356777 257.18188477 148.78295898 C258.24213867 149.39075195 259.30239258 149.99854492 260.39477539 150.62475586 C261.33095703 151.1592334 262.26713867 151.69371094 263.23168945 152.24438477 C264.35285156 152.9138916 265.47401367 153.58339844 266.62915039 154.27319336 C267.51579347 154.69279605 268.40243654 155.11239874 269.31594759 155.54471666 C276.98829019 159.57459695 276.98829019 159.57459695 278.66701877 164.02405775 C279.07917463 167.48678821 279.1387719 170.8093619 279.08653259 174.29655457 C279.11004258 175.61305616 279.13355257 176.92955776 279.15777498 178.28595334 C279.22105477 181.93049862 279.21588432 185.57219246 279.19905317 189.21712983 C279.19268396 193.15154568 279.24937944 197.0851389 279.29753113 201.01919556 C279.38111986 208.72342851 279.4039945 216.42668864 279.40321725 224.13133218 C279.40297828 230.39597073 279.42087886 236.66029849 279.45157051 242.92486 C279.54622064 262.63289968 279.57469045 282.33998125 279.55466474 302.04822157 C279.54148741 317.58303057 279.63093534 333.1153075 279.76769691 348.64945515 C279.90711104 364.61022979 279.97184783 380.56978162 279.95829397 396.53117925 C279.95215147 405.48849711 279.97619888 414.44332481 280.07996941 423.40010643 C280.16769066 431.02810784 280.1854517 438.65237648 280.11382311 446.28061178 C280.07924508 450.17118878 280.0762884 454.05471845 280.16130066 457.94467735 C280.62552293 480.61242945 280.62552293 480.61242945 275.6729176 486.66318536 C270.96533004 490.63303565 265.79904985 493.09544138 260.08071434 495.28241313 C256.46032787 496.74556376 253.31299908 498.71557136 250.00024414 500.77709961 C248.84426811 501.45945871 247.68641708 502.1386617 246.52587891 502.81323242 C245.96087677 503.14359497 245.39587463 503.47395752 244.81375122 503.81433105 C244.23720795 504.15138062 243.66066467 504.48843018 243.06665039 504.83569336 C241.81524083 505.56839618 240.56385787 506.30114444 239.3125 507.03393555 C231.70305913 511.48765688 224.07876837 515.91519572 216.44165039 520.32128906 C210.62602567 523.68186402 204.84399694 527.09731378 199.06665039 530.52319336 C189.90521454 535.95360305 180.69320141 541.29221436 171.46313477 546.60498047 C157.0983496 554.87538831 142.78246158 563.22941647 128.50415039 571.64819336 C121.25027406 575.92345365 113.94903375 580.11196364 106.62915039 584.27319336 C91.5698016 592.83953851 76.58412148 601.52603678 61.62915039 610.27319336 C57.67149247 612.5868512 53.71309838 614.89924372 49.75415039 617.21069336 C48.77897461 617.78037842 47.80379883 618.35006348 46.79907227 618.93701172 C41.45202354 622.05685204 36.09565824 625.1597816 30.72680664 628.24194336 C30.14852112 628.57424454 29.5702356 628.90654572 28.97442627 629.24891663 C26.19139287 630.84802744 23.40701013 632.44467072 20.61987305 634.03662109 C19.60586426 634.61871338 18.59185547 635.20080566 17.54711914 635.80053711 C16.56404785 636.36369629 15.58097656 636.92685547 14.56811523 637.50708008 C10.61636866 639.88180467 6.84638346 642.50654566 3.09521484 645.18554688 C0.62915039 646.27319336 0.62915039 646.27319336 -1.84399414 645.65454102 C-4.54329719 644.17892201 -7.21383405 642.68961511 -9.85131836 641.10522461 C-11.45450928 640.14737061 -11.45450928 640.14737061 -13.09008789 639.17016602 C-13.65471741 638.83075989 -14.21934692 638.49135376 -14.80108643 638.1416626 C-17.82077309 636.32708169 -20.84782376 634.52487251 -23.87475586 632.72241211 C-24.49642639 632.35196777 -25.11809692 631.98152344 -25.75860596 631.59985352 C-32.1364679 627.80570363 -38.56150633 624.0957636 -44.99584961 620.39819336 C-52.6781153 615.98087637 -60.34727924 611.54516526 -67.97851562 607.0402832 C-73.95202156 603.51491178 -79.94113443 600.01665959 -85.93334961 596.52319336 C-87.45919678 595.63361938 -87.45919678 595.63361938 -89.01586914 594.72607422 C-91.09655254 593.51318645 -93.17728206 592.30037781 -95.25805664 591.08764648 C-99.30116227 588.73091229 -103.3435033 586.37286887 -107.38574219 584.01464844 C-109.38160222 582.85030153 -111.37753362 581.68607697 -113.37353516 580.52197266 C-118.35032584 577.61935016 -123.3262877 574.71532524 -128.30053711 571.80834961 C-139.89625733 565.03409307 -151.51425534 558.30014104 -163.15161133 551.59765625 C-169.73433703 547.80335692 -176.29622027 543.97684815 -182.8371582 540.11108398 C-189.17734321 536.3713357 -195.5547413 532.69692519 -201.93334961 529.02319336 C-212.44594483 522.96796901 -222.9364806 516.87635182 -233.40991211 510.75366211 C-237.48316252 508.37278068 -241.56175763 506.00140846 -245.64428711 503.63647461 C-246.68697754 503.03134033 -247.72966797 502.42620605 -248.80395508 501.80273438 C-250.75228957 500.67222887 -252.70171068 499.5435924 -254.65258789 498.41748047 C-256.46880757 497.36229264 -258.26660126 496.27465513 -260.04309082 495.15386963 C-262.58627965 493.71659151 -264.67730127 492.76810181 -267.38095093 491.81282043 C-272.24976674 489.84748763 -276.26329506 487.6073737 -279.37084961 483.27319336 C-282.33873117 474.36890616 -281.58977706 464.3304821 -281.46244431 455.03628492 C-281.42610587 451.11212582 -281.48218429 447.18909833 -281.52612305 443.26516724 C-281.59714842 435.58746952 -281.58196384 427.91227856 -281.53552079 420.23448396 C-281.49933518 413.99318058 -281.49450713 407.75257821 -281.51190186 401.51119995 C-281.51557945 400.17706366 -281.51557945 400.17706366 -281.51933134 398.81597513 C-281.52444712 397.00893358 -281.52963453 395.20189223 -281.5348928 393.39485109 C-281.5804815 376.46331006 -281.52811898 359.53315664 -281.44208694 342.60184324 C-281.37060305 328.08437207 -281.38302056 313.56894791 -281.45678711 299.05151367 C-281.54247898 282.17932866 -281.57608738 265.30835876 -281.52699089 248.43598652 C-281.52189429 246.63572012 -281.51686435 244.83545354 -281.51190186 243.03518677 C-281.50943345 242.14950026 -281.50696504 241.26381375 -281.50442183 240.35128826 C-281.49062624 234.11987076 -281.51388153 227.88922622 -281.55157471 221.65792847 C-281.59652722 214.05977169 -281.58416082 206.46425759 -281.4990828 198.86640239 C-281.45711611 194.99130623 -281.44037997 191.12060842 -281.49346924 187.24554825 C-281.77760003 164.65163284 -281.77760003 164.65163284 -277.81652069 159.09132767 C-274.14318818 155.67125941 -270.09798417 153.72587287 -265.4068718 152.05766869 C-262.11700564 150.79008976 -259.29411632 148.93704452 -256.30834961 147.07006836 C-253.99724133 145.7186353 -251.68483254 144.36967283 -249.37084961 143.02319336 C-248.10900422 142.28643104 -246.84728824 141.54944705 -245.58569336 140.81225586 C-242.43608726 138.97258319 -239.28489401 137.13565144 -236.13305664 135.29980469 C-233.48246996 133.75564883 -230.8329323 132.20969614 -228.18334961 130.66381836 C-225.27933492 128.96964835 -222.37518225 127.27571854 -219.47045898 125.58276367 C-211.59629254 120.99254787 -203.73256252 116.38468888 -195.87084961 111.77319336 C-184.01816487 104.82100129 -172.1537778 97.88914151 -160.28149414 90.97045898 C-157.34024122 89.25534488 -154.40028945 87.53802042 -151.46069336 85.82006836 C-140.96911178 79.69037773 -130.46253751 73.58809112 -119.93334961 67.52319336 C-112.19228672 63.06398793 -104.46457009 58.58495755 -96.77050781 54.04516602 C-82.38919728 45.56017539 -67.9618767 37.15568497 -53.45483398 28.88745117 C-47.46369535 25.47200552 -41.4808767 22.04245914 -35.50585938 18.59887695 C-33.26801397 17.30927112 -31.02893796 16.02179815 -28.78857422 14.73657227 C-23.85468758 11.8989311 -18.94768258 9.03756028 -14.11694336 6.02709961 C-12.94663574 5.30611084 -12.94663574 5.30611084 -11.75268555 4.57055664 C-10.33599203 3.69261017 -8.92824253 2.79998501 -7.53198242 1.88989258 C-2.98344424 -0.91460339 -2.98344424 -0.91460339 0 0 Z " fill="#080D11" transform="translate(513.370849609375,184.726806640625)"/>
<path d="M0 0 C2.71597862 1.31524083 5.35679685 2.70240546 7.98852539 4.17944336 C9.01349121 4.753479 10.03845703 5.32751465 11.09448242 5.91894531 C12.17842285 6.53084717 13.26236328 7.14274902 14.37915039 7.77319336 C15.49789551 8.40249756 16.61664062 9.03180176 17.76928711 9.68017578 C28.02113178 15.46294666 38.18674701 21.37964925 48.26196289 27.46459961 C55.2493881 31.68392217 62.28075362 35.80523076 69.37915039 39.83569336 C77.54075012 44.47060202 85.62826054 49.21963282 93.69165039 54.02319336 C106.48265007 61.63764769 119.38565631 69.04228312 132.32788086 76.39648438 C141.87568014 81.8242268 151.4013663 87.28625555 160.87915039 92.83569336 C169.40655694 97.81891769 177.94762374 102.77763662 186.50415039 107.71069336 C187.57544189 108.328396 188.6467334 108.94609863 189.75048828 109.58251953 C195.3398109 112.80405882 200.93113185 116.02210385 206.52368164 119.23803711 C225.79929181 130.32956626 225.79929181 130.32956626 233.12915039 134.77319336 C241.06573694 139.58269166 249.12222618 144.18356777 257.18188477 148.78295898 C258.24213867 149.39075195 259.30239258 149.99854492 260.39477539 150.62475586 C261.33095703 151.1592334 262.26713867 151.69371094 263.23168945 152.24438477 C264.35285156 152.9138916 265.47401367 153.58339844 266.62915039 154.27319336 C267.51579347 154.69279605 268.40243654 155.11239874 269.31594759 155.54471666 C276.98829019 159.57459695 276.98829019 159.57459695 278.66701877 164.02405775 C279.07917463 167.48678821 279.1387719 170.8093619 279.08653259 174.29655457 C279.11004258 175.61305616 279.13355257 176.92955776 279.15777498 178.28595334 C279.22105477 181.93049862 279.21588432 185.57219246 279.19905317 189.21712983 C279.19268396 193.15154568 279.24937944 197.0851389 279.29753113 201.01919556 C279.38111986 208.72342851 279.4039945 216.42668864 279.40321725 224.13133218 C279.40297828 230.39597073 279.42087886 236.66029849 279.45157051 242.92486 C279.54622064 262.63289968 279.57469045 282.33998125 279.55466474 302.04822157 C279.54148741 317.58303057 279.63093534 333.1153075 279.76769691 348.64945515 C279.90711104 364.61022979 279.97184783 380.56978162 279.95829397 396.53117925 C279.95215147 405.48849711 279.97619888 414.44332481 280.07996941 423.40010643 C280.16769066 431.02810784 280.1854517 438.65237648 280.11382311 446.28061178 C280.07924508 450.17118878 280.0762884 454.05471845 280.16130066 457.94467735 C280.62552293 480.61242945 280.62552293 480.61242945 275.6729176 486.66318536 C270.96533004 490.63303565 265.79904985 493.09544138 260.08071434 495.28241313 C256.46032787 496.74556376 253.31299908 498.71557136 250.00024414 500.77709961 C248.84426811 501.45945871 247.68641708 502.1386617 246.52587891 502.81323242 C245.96087677 503.14359497 245.39587463 503.47395752 244.81375122 503.81433105 C244.23720795 504.15138062 243.66066467 504.48843018 243.06665039 504.83569336 C241.81524083 505.56839618 240.56385787 506.30114444 239.3125 507.03393555 C231.70305913 511.48765688 224.07876837 515.91519572 216.44165039 520.32128906 C210.62602567 523.68186402 204.84399694 527.09731378 199.06665039 530.52319336 C189.90521454 535.95360305 180.69320141 541.29221436 171.46313477 546.60498047 C157.0983496 554.87538831 142.78246158 563.22941647 128.50415039 571.64819336 C121.25027406 575.92345365 113.94903375 580.11196364 106.62915039 584.27319336 C91.5698016 592.83953851 76.58412148 601.52603678 61.62915039 610.27319336 C57.67149247 612.5868512 53.71309838 614.89924372 49.75415039 617.21069336 C48.77897461 617.78037842 47.80379883 618.35006348 46.79907227 618.93701172 C41.45202354 622.05685204 36.09565824 625.1597816 30.72680664 628.24194336 C30.14852112 628.57424454 29.5702356 628.90654572 28.97442627 629.24891663 C26.19139287 630.84802744 23.40701013 632.44467072 20.61987305 634.03662109 C19.60586426 634.61871338 18.59185547 635.20080566 17.54711914 635.80053711 C16.56404785 636.36369629 15.58097656 636.92685547 14.56811523 637.50708008 C10.61636866 639.88180467 6.84638346 642.50654566 3.09521484 645.18554688 C0.62915039 646.27319336 0.62915039 646.27319336 -1.84399414 645.65454102 C-4.54329719 644.17892201 -7.21383405 642.68961511 -9.85131836 641.10522461 C-11.45450928 640.14737061 -11.45450928 640.14737061 -13.09008789 639.17016602 C-13.65471741 638.83075989 -14.21934692 638.49135376 -14.80108643 638.1416626 C-17.82077309 636.32708169 -20.84782376 634.52487251 -23.87475586 632.72241211 C-24.49642639 632.35196777 -25.11809692 631.98152344 -25.75860596 631.59985352 C-32.1364679 627.80570363 -38.56150633 624.0957636 -44.99584961 620.39819336 C-52.6781153 615.98087637 -60.34727924 611.54516526 -67.97851562 607.0402832 C-73.95202156 603.51491178 -79.94113443 600.01665959 -85.93334961 596.52319336 C-87.45919678 595.63361938 -87.45919678 595.63361938 -89.01586914 594.72607422 C-91.09655254 593.51318645 -93.17728206 592.30037781 -95.25805664 591.08764648 C-99.30116227 588.73091229 -103.3435033 586.37286887 -107.38574219 584.01464844 C-109.38160222 582.85030153 -111.37753362 581.68607697 -113.37353516 580.52197266 C-118.35032584 577.61935016 -123.3262877 574.71532524 -128.30053711 571.80834961 C-139.89625733 565.03409307 -151.51425534 558.30014104 -163.15161133 551.59765625 C-169.73433703 547.80335692 -176.29622027 543.97684815 -182.8371582 540.11108398 C-189.17734321 536.3713357 -195.5547413 532.69692519 -201.93334961 529.02319336 C-212.44594483 522.96796901 -222.9364806 516.87635182 -233.40991211 510.75366211 C-237.48316252 508.37278068 -241.56175763 506.00140846 -245.64428711 503.63647461 C-246.68697754 503.03134033 -247.72966797 502.42620605 -248.80395508 501.80273438 C-250.75228957 500.67222887 -252.70171068 499.5435924 -254.65258789 498.41748047 C-256.46880757 497.36229264 -258.26660126 496.27465513 -260.04309082 495.15386963 C-262.58627965 493.71659151 -264.67730127 492.76810181 -267.38095093 491.81282043 C-272.24976674 489.84748763 -276.26329506 487.6073737 -279.37084961 483.27319336 C-282.33873117 474.36890616 -281.58977706 464.3304821 -281.46244431 455.03628492 C-281.42610587 451.11212582 -281.48218429 447.18909833 -281.52612305 443.26516724 C-281.59714842 435.58746952 -281.58196384 427.91227856 -281.53552079 420.23448396 C-281.49933518 413.99318058 -281.49450713 407.75257821 -281.51190186 401.51119995 C-281.51557945 400.17706366 -281.51557945 400.17706366 -281.51933134 398.81597513 C-281.52444712 397.00893358 -281.52963453 395.20189223 -281.5348928 393.39485109 C-281.5804815 376.46331006 -281.52811898 359.53315664 -281.44208694 342.60184324 C-281.37060305 328.08437207 -281.38302056 313.56894791 -281.45678711 299.05151367 C-281.54247898 282.17932866 -281.57608738 265.30835876 -281.52699089 248.43598652 C-281.52189429 246.63572012 -281.51686435 244.83545354 -281.51190186 243.03518677 C-281.50943345 242.14950026 -281.50696504 241.26381375 -281.50442183 240.35128826 C-281.49062624 234.11987076 -281.51388153 227.88922622 -281.55157471 221.65792847 C-281.59652722 214.05977169 -281.58416082 206.46425759 -281.4990828 198.86640239 C-281.45711611 194.99130623 -281.44037997 191.12060842 -281.49346924 187.24554825 C-281.77760003 164.65163284 -281.77760003 164.65163284 -277.81652069 159.09132767 C-274.14318818 155.67125941 -270.09798417 153.72587287 -265.4068718 152.05766869 C-262.11700564 150.79008976 -259.29411632 148.93704452 -256.30834961 147.07006836 C-253.99724133 145.7186353 -251.68483254 144.36967283 -249.37084961 143.02319336 C-248.10900422 142.28643104 -246.84728824 141.54944705 -245.58569336 140.81225586 C-242.43608726 138.97258319 -239.28489401 137.13565144 -236.13305664 135.29980469 C-233.48246996 133.75564883 -230.8329323 132.20969614 -228.18334961 130.66381836 C-225.27933492 128.96964835 -222.37518225 127.27571854 -219.47045898 125.58276367 C-211.59629254 120.99254787 -203.73256252 116.38468888 -195.87084961 111.77319336 C-184.01816487 104.82100129 -172.1537778 97.88914151 -160.28149414 90.97045898 C-157.34024122 89.25534488 -154.40028945 87.53802042 -151.46069336 85.82006836 C-140.96911178 79.69037773 -130.46253751 73.58809112 -119.93334961 67.52319336 C-112.19228672 63.06398793 -104.46457009 58.58495755 -96.77050781 54.04516602 C-82.38919728 45.56017539 -67.9618767 37.15568497 -53.45483398 28.88745117 C-47.46369535 25.47200552 -41.4808767 22.04245914 -35.50585938 18.59887695 C-33.26801397 17.30927112 -31.02893796 16.02179815 -28.78857422 14.73657227 C-23.85468758 11.8989311 -18.94768258 9.03756028 -14.11694336 6.02709961 C-12.94663574 5.30611084 -12.94663574 5.30611084 -11.75268555 4.57055664 C-10.33599203 3.69261017 -8.92824253 2.79998501 -7.53198242 1.88989258 C-2.98344424 -0.91460339 -2.98344424 -0.91460339 0 0 Z M-7.15600586 41.01928711 C-8.1530957 41.60452148 -9.15018555 42.18975586 -10.17749023 42.79272461 C-11.78914063 43.74211914 -11.78914063 43.74211914 -13.43334961 44.71069336 C-20.38258228 48.78648965 -27.33099768 52.85563472 -34.37084961 56.77319336 C-41.91121534 60.97788399 -49.36110456 65.33324141 -56.81298828 69.69238281 C-67.65510419 76.03227133 -78.5379112 82.30088862 -89.42016602 88.5715332 C-94.31433545 91.39400226 -99.20261886 94.22660558 -104.09057617 97.05981445 C-108.71278904 99.73776318 -113.339255 102.40820792 -117.96850586 105.07397461 C-119.13257289 105.74453967 -120.29663537 106.41511261 -121.46069336 107.08569336 C-123.71143747 108.38224257 -125.96282905 109.67764404 -128.21459961 110.97241211 C-133.88731931 114.24001085 -139.53157711 117.5450573 -145.1262207 120.94482422 C-147.53051056 122.36768055 -149.9714808 123.70280188 -152.43334961 125.02319336 C-157.10287968 127.54408652 -161.68050425 130.19530619 -166.24584961 132.89819336 C-172.60928853 136.66489263 -179.00641066 140.36591451 -185.43334961 144.02319336 C-193.00152946 148.33266782 -200.54004194 152.68979684 -208.05834961 157.08569336 C-216.93951325 162.27799416 -225.83554328 167.44362367 -234.74584961 172.58569336 C-235.87595459 173.23836182 -237.00605957 173.89103027 -238.17041016 174.56347656 C-239.73529175 175.4658606 -239.73529175 175.4658606 -241.33178711 176.38647461 C-242.25781738 176.92054932 -243.18384766 177.45462402 -244.13793945 178.00488281 C-245.5298609 178.79550515 -246.9390594 179.55729825 -248.37084961 180.27319336 C-248.37084961 274.65319336 -248.37084961 369.03319336 -248.37084961 466.27319336 C-240.78084961 470.56319336 -233.19084961 474.85319336 -225.37084961 479.27319336 C-204.65331814 491.07590826 -183.99337517 502.97657647 -163.40625 515.00537109 C-151.75510225 521.80863363 -140.06222311 528.53937853 -128.37084961 535.27319336 C-123.99542132 537.79328425 -119.62034986 540.31399183 -115.24584961 542.83569336 C-114.17052979 543.45549072 -113.09520996 544.07528809 -111.98730469 544.71386719 C-104.70399221 548.9160106 -97.4403938 553.15088789 -90.18334961 557.39819336 C-82.34429458 561.98411456 -74.47122742 566.50336816 -66.55834961 570.96069336 C-37.25755496 587.46748091 -37.25755496 587.46748091 -27.98803711 593.73803711 C-25.59731843 595.14035419 -23.24155151 596.25638196 -20.70727539 597.36914062 C-19.89557892 597.72653824 -19.08388245 598.08393585 -18.24758911 598.4521637 C-17.62826508 598.72310349 -17.00894104 598.99404327 -16.37084961 599.27319336 C-16.1420617 545.5047596 -15.96580433 491.73637494 -15.86019631 437.96755033 C-15.84768895 431.62257182 -15.83474575 425.27759427 -15.8215332 418.93261719 C-15.8189101 417.66942331 -15.81628699 416.40622944 -15.8135844 415.10475696 C-15.77004723 394.63954751 -15.69118843 374.17461838 -15.59932165 353.70957535 C-15.50587274 332.71731867 -15.4502759 311.72520901 -15.42996466 290.73275286 C-15.41622948 277.77456892 -15.37281851 264.81717725 -15.29168494 251.85923714 C-15.23890685 242.97869679 -15.2228299 234.0985672 -15.23583584 225.21788131 C-15.2422541 220.09052071 -15.23227955 214.9645463 -15.17879486 209.83743095 C-15.13019373 205.14427088 -15.1276246 200.45343107 -15.16186066 195.76016504 C-15.16609265 194.06148557 -15.15334492 192.36266243 -15.12201779 190.66426658 C-14.69108684 181.57447152 -14.69108684 181.57447152 -18.59183812 173.78104317 C-21.11245667 172.02116498 -23.63804005 170.66616849 -26.37084961 169.27319336 C-28.80834961 166.42944336 -28.80834961 166.42944336 -30.37084961 163.77319336 C-30.90709961 162.89663086 -31.44334961 162.02006836 -31.99584961 161.11694336 C-36.36128782 152.08842343 -37.08294316 140.98852645 -34.24584961 131.33569336 C-30.61871343 122.38539898 -23.76598743 115.65040097 -15.28491211 111.17163086 C-5.89631464 107.43713298 4.95500242 108.16857793 14.15649414 112.00366211 C24.07827929 117.09778561 29.10040488 123.82202843 32.62915039 134.27319336 C33.37915039 137.39819336 33.37915039 137.39819336 33.62915039 140.27319336 C33.75290039 141.40756836 33.87665039 142.54194336 34.00415039 143.71069336 C33.77903981 154.37274901 29.18395401 163.7904037 21.91040039 171.32006836 C19.62915039 173.27319336 19.62915039 173.27319336 17.02502471 174.45930797 C14.30984621 176.09876915 14.30984621 176.09876915 14.00815791 179.35807723 C14.01005651 180.64191166 14.01195511 181.9257461 14.01391125 183.24848461 C14.00814203 183.96612821 14.0023728 184.68377181 13.99642876 185.42316219 C13.98311062 187.84690509 14.00568916 190.26901319 14.02787781 192.69267273 C14.02569897 194.44005642 14.02132393 196.18743853 14.01493198 197.93481189 C14.00371199 202.75110712 14.02380589 207.56685007 14.04882228 212.38307488 C14.07035126 217.57120993 14.06311222 222.75931212 14.05931091 227.94747925 C14.05668513 236.94114794 14.07241455 245.93463571 14.10050011 254.9282589 C14.14108098 267.93160635 14.15415178 280.93486603 14.16044006 293.93826995 C14.17139176 315.03376606 14.20468968 336.12916568 14.25195312 357.22460938 C14.29782608 377.7206982 14.33322908 398.21676085 14.35449219 418.71289062 C14.3558058 419.97560158 14.35711942 421.23831254 14.35847285 422.53928747 C14.36499788 428.87373754 14.37131646 435.2081878 14.37753236 441.54263818 C14.42939261 494.11955661 14.51748169 546.69637029 14.62915039 599.27319336 C15.38509995 598.86055237 16.1410495 598.44791138 16.91990662 598.02276611 C17.91120071 597.48182312 18.90249481 596.94088013 19.92382812 596.38354492 C20.90665268 595.84715393 21.88947723 595.31076294 22.90208435 594.75811768 C25.8249548 593.16657521 28.75647869 591.59192085 31.69165039 590.02319336 C45.07189891 582.81482004 58.28052876 575.34437664 71.39208984 567.65771484 C78.26924904 563.63196799 85.18267541 559.67797777 92.12915039 555.77319336 C100.94291181 550.81573462 109.69575837 545.76223924 118.42236328 540.65307617 C125.95271895 536.24536089 133.50480156 531.8766358 141.06665039 527.52319336 C148.87889742 523.02462585 156.67197647 518.4975236 164.43164062 513.90893555 C169.96729338 510.64367818 175.54447984 507.4537436 181.12915039 504.27319336 C188.10195767 500.30138086 195.04833012 496.29077895 201.95629883 492.20727539 C206.14951017 489.72928997 210.35169734 487.26765154 214.56274414 484.82006836 C215.60712646 484.21275879 216.65150879 483.60544922 217.72753906 482.97973633 C219.75689918 481.80038397 221.78695578 480.62222885 223.81787109 479.44555664 C225.70357048 478.34903081 227.57384533 477.22540935 229.4251833 476.07181549 C232.62915039 474.27319336 232.62915039 474.27319336 235.99932384 473.13707733 C240.09995226 471.47103584 243.11688085 470.00038531 245.62915039 466.27319336 C248.04214231 458.27302573 247.30448876 449.42398547 247.13800347 441.16537333 C247.08168207 437.66174112 247.10087332 434.15840722 247.11073303 430.65444946 C247.11753895 424.58931225 247.076874 418.52599764 247.00364113 412.46131897 C246.89783278 403.69322424 246.86411751 394.92600774 246.84779724 386.1573438 C246.81936857 371.9301616 246.73292115 357.70395021 246.60986328 343.47729492 C246.49047331 329.66028693 246.39848551 315.84354294 246.34326172 302.02612305 C246.33984631 301.1739441 246.33643091 300.32176515 246.33291201 299.4437626 C246.3159461 295.16848496 246.299518 290.89320545 246.28335726 286.61792469 C246.14866345 251.16898893 245.91975924 215.72118081 245.62915039 180.27319336 C244.90764801 179.85742035 244.18614563 179.44164734 243.44277954 179.01327515 C240.69977164 177.43235129 237.95695773 175.85109148 235.21426392 174.2696228 C233.46997197 173.26397194 231.72546773 172.25868932 229.98095703 171.25341797 C222.30655276 166.82787214 214.64967159 162.37346921 207.00415039 157.89819336 C199.9556237 153.77812251 192.88716015 149.70520219 185.7565918 145.72900391 C179.92088537 142.46317023 174.15001671 139.08949074 168.37915039 135.71069336 C159.49399467 130.50879734 150.57501414 125.36965924 141.62915039 120.27319336 C132.93504021 115.31956899 124.26422993 110.32931661 115.62915039 105.27319336 C103.5377146 98.19601676 91.37459757 91.24665241 79.20239258 84.30981445 C73.30113338 80.94667277 67.4022843 77.57931238 61.50415039 74.21069336 C60.92545197 73.88026031 60.34675354 73.54982727 59.7505188 73.2093811 C51.25821977 68.35953716 42.78322377 63.48030261 34.31665039 58.58569336 C25.7513081 53.63717793 17.17154656 48.71514713 8.56665039 43.83569336 C7.57818115 43.27342041 6.58971191 42.71114746 5.57128906 42.13183594 C4.67128174 41.62289795 3.77127441 41.11395996 2.84399414 40.58959961 C2.05114014 40.14044189 1.25828613 39.69128418 0.44140625 39.22851562 C-2.81088815 37.51408373 -4.07735438 39.20566846 -7.15600586 41.01928711 Z " fill="#20343D" transform="translate(513.370849609375,184.726806640625)"/>
<path d="M0 0 C1.5778125 1.11375 1.5778125 1.11375 3.1875 2.25 C9.46222273 8.38528444 14.67611301 15.8588855 18 24 C18.29777344 24.66386719 18.59554687 25.32773437 18.90234375 26.01171875 C23.45227477 38.02605274 22.5065699 52.79149881 17.69091797 64.53564453 C10.31263901 80.90711854 -1.92147208 90.14096841 -18 97 C-22.90583643 98.47746488 -28.10304208 98.22133498 -33.1875 98.25 C-34.08275391 98.270625 -34.97800781 98.29125 -35.90039062 98.3125 C-41.57402728 98.34527191 -46.33268571 97.58478049 -51.7043457 95.74511719 C-54.23080704 94.92508528 -56.34237216 94.24556523 -59 94 C-77.72314249 103.659994 -103.79986002 128.02435823 -110.56855774 148.22594452 C-113.48098724 158.54918595 -113.85890351 169.25355071 -113.8203125 179.91796875 C-113.81775043 180.6934212 -113.81518835 181.46887364 -113.81254864 182.26782465 C-113.74092454 191.83173694 -113.24861958 201.3553874 -112.594383 210.89517987 C-111.87423509 221.52544679 -111.56198492 232.17096687 -111.23309135 242.81927204 C-111.18362748 244.40086698 -111.13399785 245.98245674 -111.084198 247.56404114 C-111.06029869 248.33595852 -111.03639938 249.1078759 -111.01177585 249.90318471 C-110.8626962 254.44630784 -110.643841 258.97902821 -110.35790372 263.51556337 C-110.22665638 265.63840276 -110.11227251 267.76144817 -110.0037384 269.88555908 C-109.86781837 272.46217136 -109.70088182 275.03741728 -109.49659729 277.60951233 C-109.11604267 285.82303776 -109.11604267 285.82303776 -111.71139145 289.27866554 C-113.72424632 291.05187933 -115.76206222 292.52802331 -118 294 C-119.68908807 295.64393949 -121.35518425 297.31176521 -123 299 C-125.74566826 301.77513748 -128.49823352 304.54341125 -131.25 307.3125 C-131.9821875 308.05306641 -132.714375 308.79363281 -133.46875 309.55664062 C-134.16484375 310.25595703 -134.8609375 310.95527344 -135.578125 311.67578125 C-136.21137695 312.31427002 -136.84462891 312.95275879 -137.49707031 313.6105957 C-139 315 -139 315 -140 315 C-140.18688963 290.86966302 -140.32795932 266.73943452 -140.41449738 242.60851955 C-140.45574681 231.40405012 -140.51198308 220.20003039 -140.60351562 208.99584961 C-140.6832585 199.2301464 -140.73486699 189.46476886 -140.75270796 179.69874913 C-140.76313697 174.52760666 -140.78764118 169.35739586 -140.84584045 164.18655205 C-140.90019097 159.31816223 -140.91688308 154.45108665 -140.90486145 149.58242226 C-140.90706022 147.79696379 -140.92294693 146.01146087 -140.9536438 144.22626495 C-141.17445309 130.72116004 -141.17445309 130.72116004 -138.24728489 126.43139744 C-136.24551935 124.66082106 -134.30562714 123.33510686 -132 122 C-130.41843564 120.49896491 -128.85164528 118.98200488 -127.30859375 117.44140625 C-126.50873047 116.64283203 -125.70886719 115.84425781 -124.88476562 115.02148438 C-124.07716797 114.21001953 -123.26957031 113.39855469 -122.4375 112.5625 C-121.62603516 111.75490234 -120.81457031 110.94730469 -119.97851562 110.11523438 C-115.66295246 105.79270501 -111.51392081 101.39112109 -107.5300293 96.76147461 C-105.49861091 94.42276651 -103.36804819 92.19964231 -101.1875 90 C-100.43855469 89.236875 -99.68960938 88.47375 -98.91796875 87.6875 C-97 86 -97 86 -95 86 C-94.78601563 85.45859375 -94.57203125 84.9171875 -94.3515625 84.359375 C-92.51922057 81.1607203 -90.00203394 78.79035516 -87.375 76.25 C-86.859375 75.74339844 -86.34375 75.23679687 -85.8125 74.71484375 C-84.54616661 73.47196098 -83.2736856 72.23534724 -82 71 C-82.4577719 69.31234761 -82.9162489 67.62488648 -83.375 65.9375 C-83.63023437 64.99777344 -83.88546875 64.05804688 -84.1484375 63.08984375 C-84.74174942 60.93704683 -85.39086466 58.79918474 -86.08203125 56.67578125 C-87.1417312 52.43247209 -87.34493413 48.60266003 -87.3125 44.25 C-87.30404053 43.05866455 -87.30404053 43.05866455 -87.29541016 41.84326172 C-87.00854704 27.89489781 -81.7304892 15.10500192 -72.0625 4.9609375 C-51.83115357 -14.27416838 -22.58733207 -16.58935146 0 0 Z " fill="#00D9DC" transform="translate(692,375)"/>
<path d="M0 0 C10.61879232 9.0763072 19.13382869 20.5427448 20.58691406 34.75683594 C21.37468242 46.96922477 21.25321404 58.03520222 15.3046875 68.99609375 C14.9746875 69.65609375 14.6446875 70.31609375 14.3046875 70.99609375 C19.70901344 77.39073788 25.50284721 83.32554617 31.4375 89.2265625 C32.40222893 90.18942007 33.36673266 91.15250331 34.33102417 92.11579895 C36.84867187 94.62966427 39.36930548 97.14051392 41.890625 99.6506958 C44.4510384 102.20085373 47.00860677 104.75386142 49.56640625 107.30664062 C53.3124344 111.04475093 57.05996467 114.78134475 60.80908203 118.51635742 C61.59736389 119.30424652 62.38564575 120.09213562 63.19781494 120.90390015 C64.46392879 122.16119276 65.73774048 123.41090007 67.02630615 124.64517212 C68.15310878 125.72782845 69.23640235 126.85565711 70.3046875 127.99609375 C70.3046875 128.65609375 70.3046875 129.31609375 70.3046875 129.99609375 C70.9646875 129.99609375 71.6246875 129.99609375 72.3046875 129.99609375 C72.3046875 191.04609375 72.3046875 252.09609375 72.3046875 314.99609375 C69.9946875 313.01609375 67.6846875 311.03609375 65.3046875 308.99609375 C64.34940816 308.23980084 63.39412882 307.48350794 62.40990162 306.70429707 C42.45320639 290.88157192 42.45320639 290.88157192 40.58065796 278.79476929 C40.175718 272.08893263 40.5882597 265.47115809 41.21596336 258.79474449 C41.63361756 254.31750998 41.82654227 249.84504668 41.98835754 245.35224915 C42.44746527 233.40078898 43.09593716 221.46382319 44.05093873 209.54122365 C44.86205594 199.40913859 45.42960078 189.29715261 45.59765625 179.1328125 C45.61927771 177.99599415 45.61927771 177.99599415 45.64133596 176.83620977 C45.95304315 154.13370556 40.8277774 139.389473 24.992351 122.89824003 C14.56351308 112.36914074 3.16171084 102.86660718 -8.6953125 93.99609375 C-9.56980545 94.27908829 -10.4442984 94.56208282 -11.34529114 94.85365295 C-12.50211899 95.22042648 -13.65894684 95.58720001 -14.85083008 95.96508789 C-15.99344803 96.33058243 -17.13606598 96.69607697 -18.31330872 97.07264709 C-23.06731969 98.37071647 -27.48509781 98.54905318 -32.3828125 98.43359375 C-33.67155273 98.44422852 -33.67155273 98.44422852 -34.98632812 98.45507812 C-49.51694525 98.31294267 -61.74412093 91.71217558 -72.1171875 81.828125 C-83.3869163 69.44849867 -87.58377667 55.9396532 -87.015625 39.56640625 C-86.20556232 25.42236213 -80.36196441 14.20618606 -70.6953125 3.99609375 C-50.21456393 -13.78082307 -22.25405291 -16.54540455 0 0 Z " fill="#00D8DB" transform="translate(399.6953125,375.00390625)"/>
<path d="M0 0 C7.05066079 5.51656097 11.04601627 11.85343123 12.21484375 20.703125 C11.36111149 27.89886838 9.47580554 34.31642547 4.08984375 39.390625 C-2.58331818 44.51246146 -9.08288117 46.14634563 -17.42578125 45.109375 C-22.20979798 43.87996288 -26.40465034 41.5129422 -30.22265625 38.390625 C-30.22265625 37.730625 -30.22265625 37.070625 -30.22265625 36.390625 C-30.88265625 36.390625 -31.54265625 36.390625 -32.22265625 36.390625 C-37.07316637 28.81170294 -37.52636504 20.97901047 -35.78515625 12.1796875 C-33.58394306 6.09883607 -28.4298148 1.7590633 -23.09765625 -1.546875 C-15.90544513 -4.14451333 -6.6100677 -3.96883557 0 0 Z " fill="#090D12" transform="translate(671.22265625,397.609375)"/>
<path d="M0 0 C5.84744341 5.75158368 8.20333212 10.71081111 8.65625 18.9765625 C8.4243027 25.8383369 5.96499122 31.24133737 1.30859375 36.24609375 C-3.54820832 40.42924542 -9.25597724 42.43184772 -15.5625 43.0625 C-21.95558418 42.5469287 -27.3587056 40.46726494 -32.3125 36.375 C-38.92734727 28.20371808 -40.37653003 22.18664806 -39.4375 11.75 C-37.35497855 4.19772343 -31.91531987 -0.14881716 -25.4375 -4.0625 C-16.43829119 -7.62468682 -7.4852199 -6.20044335 0 0 Z " fill="#090D12" transform="translate(382.4375,400.25)"/>
<path d="M0 0 C0.66 0 1.32 0 2 0 C2 61.05 2 122.1 2 185 C-0.97 182.525 -0.97 182.525 -4 180 C-3.01 180 -2.02 180 -1 180 C-0.67 120.6 -0.34 61.2 0 0 Z " fill="#00EDEE" transform="translate(470,505)"/>
<path d="M0 0 C0 3.74016583 -0.9341591 4.45276193 -3.375 7.1875 C-4.00148438 7.90292969 -4.62796875 8.61835938 -5.2734375 9.35546875 C-7 11 -7 11 -9 11 C-9 26.51 -9 42.02 -9 58 C-9.33 58 -9.66 58 -10 58 C-10.34678009 51.29399008 -10.62883524 44.58745863 -10.86669922 37.87670898 C-10.95510473 35.59581451 -11.05814464 33.31543724 -11.17626953 31.03588867 C-11.34386262 27.75206685 -11.45814753 24.46995959 -11.5625 21.18359375 C-11.62566406 20.16978134 -11.68882812 19.15596893 -11.75390625 18.11143494 C-11.90383128 11.1297087 -11.90383128 11.1297087 -9.28466797 7.85598755 C-7.26584862 6.0879315 -5.18901719 4.54833608 -3 3 C-1.97912109 2.02132424 -0.97112246 1.02806672 0 0 Z " fill="#00DDDE" transform="translate(563,494)"/>
<path d="M0 0 C0 4.87482532 -3.3375761 7.3218041 -6.625 10.6875 C-7.800625 11.8321875 -7.800625 11.8321875 -9 13 C-9.66 13.66 -10.32 14.32 -11 15 C-11.99 14.67 -12.98 14.34 -14 14 C-9.38 9.38 -4.76 4.76 0 0 Z " fill="#00ECEE" transform="translate(578,479)"/>
<path d="M0 0 C0 3.74016583 -0.9341591 4.45276193 -3.375 7.1875 C-4.00148438 7.90292969 -4.62796875 8.61835938 -5.2734375 9.35546875 C-7 11 -7 11 -9 11 C-9 13.31 -9 15.62 -9 18 C-9.33 18 -9.66 18 -10 18 C-11.40017799 13.01186592 -11.40017799 13.01186592 -11 10 C-8.69787146 7.16145317 -5.91957528 5.16772977 -3 3 C-1.9810214 2.01934582 -0.97347195 1.02584227 0 0 Z " fill="#00E8EB" transform="translate(563,494)"/>
<path d="M0 0 C2.32617985 3.63465602 2.31404687 6.76036719 2 11 C1.34 11.66 0.68 12.32 0 13 C-1.25069801 10.49860398 -1.13302467 8.72607309 -1.125 5.9375 C-1.12757813 5.03902344 -1.13015625 4.14054687 -1.1328125 3.21484375 C-1 1 -1 1 0 0 Z " fill="#0B1E20" transform="translate(681,411)"/>
<path d="M0 0 C0.66 0.33 1.32 0.66 2 1 C-4.15034169 8.48291572 -4.15034169 8.48291572 -8 11 C-8.66 10.67 -9.32 10.34 -10 10 C-6.7 6.7 -3.4 3.4 0 0 Z " fill="#082629" transform="translate(569,673)"/>
<path d="M0 0 C0.66 0 1.32 0 2 0 C3.06671952 3.20015856 2.94845472 4.88544294 2.5625 8.1875 C2.46066406 9.08855469 2.35882812 9.98960937 2.25390625 10.91796875 C2.17011719 11.60503906 2.08632813 12.29210937 2 13 C1.67 13 1.34 13 1 13 C0.67 8.71 0.34 4.42 0 0 Z " fill="#00EEF0" transform="translate(682,410)"/>
</svg>
