<?xml version="1.0" encoding="UTF-8"?>
<svg version="1.1" xmlns="http://www.w3.org/2000/svg" width="1024" height="1024">
<path d="M0 0 C1.94628616 -0.00054179 3.89257219 -0.00150057 5.83885819 -0.00247248 C26.87849271 -0.01141751 47.91254433 0.16387508 68.94954973 0.48815016 C73.16458728 0.55201113 77.37970414 0.61021973 81.59481341 0.6691194 C89.66064788 0.78255355 97.72638749 0.90140776 105.79207903 1.02458815 C100.41840771 13.97882022 95.03051821 26.92208591 89.41707903 39.77458815 C88.31190387 42.31451466 87.20826629 44.85510856 86.10457903 47.3956819 C85.83013964 48.02701537 85.55570025 48.65834883 85.27294451 49.30881362 C78.75187379 64.31587527 72.2551466 79.33473512 66.09139544 94.49260573 C63.99853909 99.60725745 61.69630585 104.60402014 59.34286028 109.60271315 C57.11004607 114.52952739 55.08043115 119.53536764 53.06356341 124.55388503 C50.89266497 129.92400222 50.89266497 129.92400222 49.79207903 131.02458815 C47.8169803 131.23402425 45.83636221 131.39262637 43.85457903 131.52458815 C39.67040488 131.70193899 39.67040488 131.70193899 35.79207903 133.02458815 C35.79207903 132.36458815 35.79207903 131.70458815 35.79207903 131.02458815 C-7.74267184 131.12914889 -51.27740687 131.23891528 -94.81212675 131.35570509 C-99.94682498 131.36947537 -105.08152333 131.38320237 -110.21622175 131.39690261 C-111.23848738 131.39963091 -112.26075301 131.40235921 -113.31399639 131.40517019 C-129.88634628 131.44929647 -146.45870302 131.48991241 -163.03106491 131.52924076 C-180.02421157 131.56964547 -197.01734546 131.61379999 -214.01047331 131.6614667 C-224.50388661 131.69078221 -234.99729892 131.71714059 -245.49072881 131.73976713 C-252.67749246 131.75554327 -259.86424049 131.77494765 -267.05098681 131.79725657 C-271.20303014 131.81003648 -275.35506139 131.82116754 -279.50711912 131.82800727 C-283.30307941 131.83429553 -287.09899807 131.84510612 -290.89493556 131.85962146 C-292.27315401 131.86407401 -293.65137916 131.86682022 -295.02960448 131.86775015 C-296.89330708 131.86924908 -298.7570009 131.87738735 -300.62068456 131.88592295 C-302.17791764 131.88991002 -302.17791764 131.88991002 -303.76660997 131.89397763 C-306.21561714 131.8622732 -306.21561714 131.8622732 -308.20792097 133.02458815 C-308.20792097 132.36458815 -308.20792097 131.70458815 -308.20792097 131.02458815 C-336.6761334 131.1292815 -365.14432236 131.23898653 -393.6124882 131.35570509 C-396.97209845 131.36947496 -400.33170887 131.38320201 -403.69131941 131.39690261 C-404.36016787 131.39963091 -405.02901634 131.40235921 -405.71813294 131.40517019 C-416.55331951 131.44926595 -427.38851645 131.48989246 -438.22372118 131.52924076 C-449.33855815 131.56968164 -460.45337611 131.6139152 -471.56818503 131.6614667 C-477.81248851 131.68806047 -484.05678816 131.71291342 -490.30111402 131.73366217 C-496.17462156 131.75323288 -502.04809226 131.77737806 -507.9215669 131.80507903 C-510.08070673 131.81444714 -512.23985465 131.82212329 -514.39900678 131.82800727 C-517.34037729 131.83627245 -520.28165851 131.85055043 -523.22299665 131.86636977 C-524.0829177 131.86734788 -524.94283876 131.86832598 -525.82881802 131.86933373 C-530.07755382 131.86260625 -530.07755382 131.86260625 -534.25322455 132.53764926 C-536.20792097 133.02458815 -536.20792097 133.02458815 -539.47354597 132.95427565 C-543.58254248 133.0316417 -547.08804876 133.88727382 -550.95792097 135.14958815 C-552.00943342 135.4917134 -552.00943342 135.4917134 -553.08218855 135.84075026 C-567.35248275 140.65859005 -580.74304717 149.80723353 -588.00088972 163.3800569 C-594.94447409 178.5930233 -597.06222078 190.8010072 -592.20792097 207.02458815 C-585.57627634 221.83526117 -572.6345583 229.27580645 -558.08292097 234.96208815 C-554.25795838 236.37471445 -554.25795838 236.37471445 -550.33365339 237.45549636 C-547.91091651 238.10410089 -545.75192648 239.03206335 -543.45401472 240.04021315 C-534.26974021 243.91755304 -524.87216928 247.22854677 -515.49673933 250.61003737 C-512.25221441 251.78115987 -509.0102766 252.95925206 -505.76846784 254.1378694 C-503.69765569 254.88698594 -501.62669733 255.63569845 -499.55557722 256.38396315 C-498.1086524 256.91047469 -498.1086524 256.91047469 -496.63249677 257.44762282 C-495.73063139 257.77176161 -494.828766 258.09590041 -493.89957136 258.42986159 C-493.11191892 258.71456313 -492.32426649 258.99926467 -491.5127458 259.29259352 C-489.09645373 260.05998929 -486.70078435 260.57235881 -484.20792097 261.02458815 C-484.20792097 261.68458815 -484.20792097 262.34458815 -484.20792097 263.02458815 C-483.50393171 263.14302077 -482.79994245 263.26145339 -482.07462019 263.38347487 C-478.99134908 264.07302264 -476.26652111 265.09107036 -473.34073347 266.28240065 C-472.21457624 266.73977614 -471.08841902 267.19715163 -469.92813581 267.66838698 C-468.74171491 268.15718337 -467.55529402 268.64597975 -466.33292097 269.14958815 C-465.11942976 269.64805251 -463.90593855 270.14651686 -462.65567487 270.6600862 C-438.90922395 280.47530709 -438.90922395 280.47530709 -430.69229597 286.31365065 C-428.68787204 287.69405581 -426.67834309 288.97591519 -424.59854597 290.23552565 C-415.24799023 295.90166631 -406.64358097 302.07308049 -398.20792097 309.02458815 C-397.40741316 309.67040847 -396.60690534 310.31622878 -395.78213972 310.9816194 C-394.21139368 312.27536013 -392.69911668 313.63990642 -391.20792097 315.02458815 C-391.20792097 315.68458815 -391.20792097 316.34458815 -391.20792097 317.02458815 C-390.54792097 317.02458815 -389.88792097 317.02458815 -389.20792097 317.02458815 C-386.66012254 319.48975528 -384.47108558 322.29900877 -382.20792097 325.02458815 C-381.56210066 325.78384597 -380.91628034 326.54310378 -380.25088972 327.3253694 C-352.2311094 361.09279696 -344.73383392 404.05305164 -348.53751081 446.72185378 C-350.01815401 459.20903224 -352.94557227 471.21104145 -357.20792097 483.02458815 C-357.74159284 484.60626784 -357.74159284 484.60626784 -358.28604597 486.21990065 C-361.09861679 494.12282852 -364.90034635 501.40453977 -368.90591902 508.75432448 C-369.5446092 509.93031203 -369.5446092 509.93031203 -370.19620222 511.1300569 C-370.5833238 511.83283766 -370.97044538 512.53561843 -371.36929792 513.25969557 C-372.35098153 514.99999343 -372.35098153 514.99999343 -372.20792097 517.02458815 C-373.52784 518.37120217 -374.86418499 519.70173926 -376.20792097 521.02458815 C-377.63036712 522.8794797 -379.02427609 524.75645915 -380.39542097 526.64958815 C-384.05991092 531.59574701 -387.92028749 536.20696541 -392.09854597 540.7238069 C-393.99827115 542.79591455 -395.79018477 544.92299946 -397.58292097 547.08708815 C-401.90752148 552.05089058 -407.05819614 555.95788345 -412.20792097 560.02458815 C-412.98909284 560.68329909 -413.77026472 561.34201003 -414.57510847 562.0206819 C-426.52929826 572.02275652 -440.15445066 579.42880661 -454.20792097 586.02458815 C-455.86307722 586.82509597 -455.86307722 586.82509597 -457.55167097 587.64177565 C-479.92872783 597.92456607 -505.31708093 602.10192007 -529.77408308 602.24577956 C-531.12190534 602.25701769 -532.46972437 602.26865085 -533.81754011 602.28064589 C-537.45129905 602.31174261 -541.08507611 602.33698559 -544.71888894 602.36084275 C-547.75623921 602.38135809 -550.79356334 602.40486129 -553.83089161 602.42837994 C-560.99047758 602.48380678 -568.15008583 602.53457165 -575.30972761 602.58220534 C-582.69838847 602.6314279 -590.08697092 602.68774014 -597.47555244 602.74762647 C-603.82643079 602.79890191 -610.17732968 602.84624603 -616.52826214 602.89031403 C-620.31876435 602.91662914 -624.10924243 602.94435329 -627.89970678 602.97568755 C-631.45623375 603.00488237 -635.01276047 603.02916103 -638.56934828 603.04958777 C-640.50120925 603.06189087 -642.43303622 603.07921155 -644.36485761 603.09665541 C-645.50733961 603.10224974 -646.6498216 603.10784407 -647.82692426 603.11360793 C-648.82367642 603.12060525 -649.82042858 603.12760256 -650.84738535 603.13481192 C-653.20792097 603.02458815 -653.20792097 603.02458815 -655.20792097 602.02458815 C-655.20792097 602.68458815 -655.20792097 603.34458815 -655.20792097 604.02458815 C-655.86792097 603.69458815 -656.52792097 603.36458815 -657.20792097 603.02458815 C-658.70273118 602.92070189 -660.20201325 602.87810197 -661.70038313 602.86636977 C-662.64551771 602.85658095 -663.59065229 602.84679213 -664.56442732 602.83670668 C-665.60451948 602.83095122 -666.64461164 602.82519576 -667.71622175 602.81926589 C-669.35525968 602.80441649 -669.35525968 602.80441649 -671.02740949 602.78926711 C-674.65266183 602.75758506 -678.27792729 602.73286817 -681.90323347 602.7081819 C-684.41144624 602.68761817 -686.91965549 602.66662186 -689.42786115 602.64520888 C-695.36348637 602.59558383 -701.2991348 602.55033406 -707.2348097 602.50718652 C-714.65426881 602.4529864 -722.07366972 602.39202441 -729.49307722 602.33122878 C-742.7313189 602.22357398 -755.96959985 602.12195739 -769.20792097 602.02458815 C-768.51100828 597.42334947 -767.3753953 593.6839274 -765.48526472 589.4191194 C-765.22032713 588.81323485 -764.95538954 588.2073503 -764.68242353 587.58310561 C-763.84314975 585.66487822 -762.99523113 583.75066862 -762.14542097 581.83708815 C-761.29252652 579.91260219 -760.44174685 577.98732263 -759.59770674 576.05893569 C-758.83513244 574.3169789 -758.06457582 572.578523 -757.29361433 570.84026198 C-756.02803574 568.06102424 -756.02803574 568.06102424 -756.20792097 565.02458815 C-755.54792097 565.02458815 -754.88792097 565.02458815 -754.20792097 565.02458815 C-753.83924909 563.83993972 -753.47057722 562.65529128 -753.09073347 561.4347444 C-750.81400727 554.61914322 -747.91633713 548.05923618 -745.08292097 541.46208815 C-744.1565157 539.29658217 -743.23103744 537.13068148 -742.30560774 534.96475844 C-741.6505133 533.43182348 -740.99496643 531.8990818 -740.33899397 530.36652236 C-738.14176455 525.22848673 -735.96571296 520.08191489 -733.80261701 514.92941909 C-732.27391152 511.28810541 -730.74054937 507.64876008 -729.20700544 504.00948195 C-728.46157451 502.23729753 -727.71818394 500.46425339 -726.9769029 498.69032912 C-725.93203865 496.19121917 -724.87940256 493.69551301 -723.82510847 491.2003694 C-723.51831159 490.46108199 -723.21151472 489.72179457 -722.89542097 488.96010451 C-722.60006452 488.26506819 -722.30470808 487.57003188 -722.00040144 486.85393386 C-721.74950758 486.25619658 -721.49861372 485.65845931 -721.24011701 485.04260878 C-720.89949232 484.37666197 -720.55886762 483.71071517 -720.20792097 483.02458815 C-719.68886183 482.00821461 -719.16980268 480.99184107 -718.63501447 479.94466834 C-716.20792097 477.02458815 -716.20792097 477.02458815 -712.67821401 476.27906375 C-711.23316759 476.2504402 -709.7872409 476.25497648 -708.34222883 476.28528456 C-707.54422924 476.27819116 -706.74622964 476.27109776 -705.92404824 476.2637894 C-703.24596048 476.24720062 -700.56999237 476.2733838 -697.892003 476.29924636 C-695.97326001 476.29598783 -694.05451997 476.29005265 -692.13579267 476.28163771 C-688.00008612 476.2692159 -683.86498831 476.27569914 -679.72931761 476.29670767 C-673.18044447 476.32976001 -666.63204854 476.32047283 -660.08313459 476.30539565 C-649.71235771 476.2864942 -639.34182528 476.29555516 -628.97105962 476.31671689 C-610.4346902 476.3543165 -591.89835782 476.35849548 -573.36197072 476.33186458 C-566.86276764 476.32380604 -560.36386269 476.33229653 -553.86469477 476.3544275 C-549.80289191 476.36558173 -545.74115279 476.36451043 -541.67933935 476.36055236 C-539.80819007 476.3613331 -537.93703416 476.36721423 -536.06592077 476.37883048 C-522.17998549 476.46150389 -508.68873039 475.87032313 -496.20792097 469.02458815 C-495.30171003 468.53087722 -494.39549909 468.03716628 -493.46182722 467.5284944 C-483.88932921 461.90448946 -477.78874377 454.57453921 -474.20792097 444.02458815 C-471.32239083 432.5604549 -472.28454059 420.28057209 -478.20792097 410.02458815 C-486.91653861 397.88305128 -498.62574464 391.7103945 -512.27823347 386.29802565 C-513.14348142 385.9536949 -514.00872938 385.60936415 -514.90019697 385.25459914 C-524.09318871 381.62749393 -533.38282572 378.27890805 -542.68927473 374.95632033 C-547.82729461 373.11963483 -552.95895057 371.26533377 -558.09073347 369.4113069 C-559.11868528 369.03994109 -560.14663709 368.66857527 -561.20573896 368.28595595 C-637.77441568 340.59627314 -637.77441568 340.59627314 -669.70010847 314.10271315 C-671.44440945 312.65727994 -673.22377171 311.25355463 -675.02823347 309.88396315 C-676.10717878 308.96357253 -676.10717878 308.96357253 -677.20792097 308.02458815 C-677.20792097 307.36458815 -677.20792097 306.70458815 -677.20792097 306.02458815 C-677.76221784 305.8028694 -678.31651472 305.58115065 -678.88760847 305.35271315 C-687.83856874 300.22926788 -694.46307347 289.21064412 -700.21182722 280.86052565 C-702.07054447 278.04780443 -702.07054447 278.04780443 -704.20792097 276.02458815 C-717.5889838 253.72281677 -726.15976116 228.14436031 -726.44620222 201.99333815 C-726.45599607 201.24825499 -726.46578993 200.50317183 -726.47588056 199.73551039 C-727.00604746 148.88732547 -711.92603167 102.98754364 -676.05167097 65.93083815 C-675.57471784 65.44486159 -675.09776472 64.95888503 -674.60635847 64.4581819 C-673.25510706 63.07296048 -671.93397718 61.65855204 -670.61417097 60.24333815 C-663.37118828 52.65129606 -655.2599198 46.47077681 -646.82095808 40.27043776 C-645.07503738 38.97663177 -645.07503738 38.97663177 -643.20792097 37.02458815 C-638.6292134 34.20692196 -633.9093706 31.63057114 -629.20792097 29.02458815 C-628.48830183 28.62111159 -627.76868269 28.21763503 -627.02725691 27.8019319 C-610.57062828 18.6201837 -593.53185771 11.96394045 -575.38370222 6.9347444 C-572.34214149 6.16815271 -572.34214149 6.16815271 -570.20792097 5.02458815 C-568.16917104 4.78270257 -566.12945875 4.54755265 -564.08682722 4.3409944 C-559.5247972 3.8396044 -554.98578699 3.17077354 -550.44229597 2.52458815 C-538.03927015 0.97647111 -525.68962496 0.87239525 -513.21396345 0.86636977 C-511.19904199 0.86179655 -509.18412147 0.85679543 -507.16920203 0.8514062 C-501.65748339 0.8378946 -496.14577087 0.83042655 -490.63404006 0.82397954 C-484.67658887 0.81594137 -478.71915028 0.80225238 -472.7617082 0.78926711 C-462.43374252 0.76753038 -452.10577516 0.74933605 -441.77779859 0.73366217 C-430.90888207 0.71715528 -420.03997194 0.69865144 -409.17106336 0.6775289 C-408.15303192 0.67555249 -408.15303192 0.67555249 -407.11443419 0.67353615 C-403.66574898 0.66683153 -400.21706383 0.66009323 -396.7683787 0.6533429 C-372.33107757 0.60557947 -347.89377024 0.56242394 -323.45645612 0.52190261 C-299.88385983 0.48280775 -276.31126945 0.44138626 -252.73868269 0.39690261 C-251.65502744 0.39485881 -251.65502744 0.39485881 -250.54948017 0.39277373 C-244.00975062 0.3804382 -237.47002111 0.36808158 -230.93029164 0.35570509 C-204.22596224 0.30519134 -177.52162963 0.25638681 -150.81729597 0.2081819 C-150.14772453 0.20697246 -149.4781531 0.20576301 -148.78829162 0.20451691 C-40.50030988 0.00897134 -40.50030988 0.00897134 0 0 Z " fill="#FD5E3F" transform="translate(868.2079209685326,202.97541184723377)"/>
<path d="M0 0 C10.58791981 0.00432442 21.17582763 0.00125021 31.76374668 -0.00362813 C42.16387216 -0.00822057 52.56399261 -0.0087809 62.96411878 -0.00618947 C69.0982274 -0.00466224 75.23232808 -0.0043316 81.36643612 -0.00772595 C112.1169755 -0.02249936 142.83718093 0.31177279 173.57731831 1.12856936 C172.86555221 4.91888809 171.84522731 8.18802654 170.33903706 11.74575686 C169.85894185 12.88577151 169.37884663 14.02578616 168.88420308 15.20034671 C168.34452031 16.46813534 167.80472107 17.7358744 167.26481831 19.00356936 C166.69406952 20.35319146 166.12368746 21.7029687 165.55363667 23.05288577 C163.9318395 26.88876151 162.30313698 30.72167111 160.67265522 34.55386233 C159.52386887 37.25420802 158.37617908 39.95501784 157.2286855 42.65591311 C153.84142534 50.62730813 150.45413732 58.59867063 147.05290425 66.56411624 C143.09304097 75.84089783 139.15102418 85.12338671 135.28825581 94.44106936 C134.33006967 96.74153697 133.37115041 99.04169755 132.41200459 101.34176517 C131.818279 102.77236939 131.22847287 104.20460714 130.64277852 105.6385181 C129.84785836 107.58459346 129.04027291 109.52492698 128.22966206 111.46450686 C127.78614399 112.54264651 127.34262593 113.62078616 126.88566792 114.73159671 C125.57731831 117.12856936 125.57731831 117.12856936 122.57731831 118.12856936 C120.29464114 118.2209723 118.0092795 118.25049754 115.72473347 118.24882388 C114.67345738 118.25010552 114.67345738 118.25010552 113.60094339 118.25141305 C111.24709528 118.2530632 108.89331808 118.24755407 106.53947651 118.24209476 C104.85432638 118.24181276 103.16917613 118.24197086 101.48402607 118.24253726 C96.90376057 118.24282474 92.32352113 118.23693592 87.74326169 118.2299633 C82.9586344 118.22372162 78.17400654 118.22312532 73.38937581 118.22193789 C64.3265239 118.21882699 55.26368403 118.21061683 46.20083743 118.20058841 C35.88415805 118.18941981 25.5674781 118.18391493 15.25079417 118.17889297 C-5.9737045 118.16843403 -27.19819234 118.15083923 -48.42268169 118.12856936 C-48.42268169 119.77856936 -48.42268169 121.42856936 -48.42268169 123.12856936 C-47.76268169 123.45856936 -47.10268169 123.78856936 -46.42268169 124.12856936 C-47.08268169 124.12856936 -47.74268169 124.12856936 -48.42268169 124.12856936 C-48.42268169 131.05856936 -48.42268169 137.98856936 -48.42268169 145.12856936 C4.70731831 145.45856936 57.83731831 145.78856936 112.57731831 146.12856936 C100.77078741 175.64489661 100.77078741 175.64489661 94.58220112 189.88003421 C93.73657885 191.82932139 92.90221127 193.78311153 92.06950581 195.73794436 C91.58852437 196.8513721 91.10754292 197.96479983 90.61198628 199.1119678 C89.61390128 202.02191075 89.35164871 204.08521318 89.57731831 207.12856936 C88.91731831 207.12856936 88.25731831 207.12856936 87.57731831 207.12856936 C85.33471644 212.44855745 83.09270835 217.76879523 80.85124409 223.08926272 C80.08903656 224.89825037 79.32666837 226.70717033 78.56413472 228.51602054 C77.46654129 231.11976402 76.36953064 233.72375237 75.27263081 236.32778811 C74.76314396 237.53588389 74.76314396 237.53588389 74.24336445 238.76838565 C73.92318348 239.52879657 73.60300251 240.28920749 73.27311909 241.07266116 C72.99332203 241.73662402 72.71352498 242.40058688 72.42524922 243.08466983 C71.45462826 245.42430825 70.51388993 247.77511946 69.57731831 250.12856936 C68.97617522 250.1328013 68.37503212 250.13703324 67.75567257 250.14139342 C53.14247926 250.24460519 38.52933314 250.35322864 23.91622555 250.46790862 C16.84949737 250.5232354 9.78276413 250.57671649 2.71599019 250.62588382 C-4.09858982 250.67330164 -10.91311504 250.72582151 -17.7276324 250.78151011 C-20.33284144 250.80195501 -22.93806467 250.82066448 -25.5432986 250.83764338 C-29.180717 250.86164018 -32.8180369 250.89170118 -36.45539653 250.9232471 C-38.08566532 250.93188029 -38.08566532 250.93188029 -39.74886882 250.94068789 C-41.22967685 250.95537112 -41.22967685 250.95537112 -42.7404002 250.97035098 C-43.60135484 250.97680353 -44.46230949 250.98325608 -45.34935367 250.98990417 C-47.48476501 250.99855671 -47.48476501 250.99855671 -49.42268169 252.12856936 C-49.42268169 298.65856936 -49.42268169 345.18856936 -49.42268169 393.12856936 C-87.37268169 393.12856936 -125.32268169 393.12856936 -164.42268169 393.12856936 C-165.25420591 388.97094828 -165.54794175 385.67585397 -165.54852283 381.48781848 C-165.54997627 380.83063661 -165.55142971 380.17345474 -165.5529272 379.49635828 C-165.55658104 377.29087329 -165.55310364 375.08545768 -165.54966533 372.87997317 C-165.55081738 371.28419729 -165.55240547 369.68842166 -165.55439258 368.0926466 C-165.55857416 363.70485928 -165.55650048 359.31709367 -165.55340636 354.92930627 C-165.55114781 350.1985863 -165.5546341 345.46787012 -165.55738628 340.73715091 C-165.56183766 331.46972078 -165.56087043 322.20229875 -165.55797364 312.93486831 C-165.55571768 305.4068672 -165.55540792 297.87886837 -165.55649745 290.35086703 C-165.55665069 289.28054377 -165.55680392 288.2102205 -165.5569618 287.1074632 C-165.55728151 284.9333546 -165.55760572 282.759246 -165.55793439 280.5851374 C-165.56078719 260.19027706 -165.557505 239.79542121 -165.55213402 219.4005616 C-165.54766361 201.88248642 -165.54844426 184.36441786 -165.55305278 166.8463428 C-165.55839767 146.51956972 -165.56051521 126.19280057 -165.55744052 105.86602688 C-165.55712196 103.7010208 -165.55680759 101.53601472 -165.55649745 99.37100863 C-165.55634318 98.30567772 -165.5561889 97.24034681 -165.55602995 96.14273314 C-165.55516473 88.61752091 -165.55662774 81.09231117 -165.55897701 73.56709933 C-165.56177414 64.40571815 -165.56103849 55.24434554 -165.55569626 46.08296534 C-165.55305846 41.40443629 -165.55205555 36.72592157 -165.55534542 32.04739261 C-165.55830661 27.77181921 -165.55671857 23.49627353 -165.55136786 19.22070268 C-165.55024295 17.66700909 -165.55083649 16.1133132 -165.55324365 14.55962107 C-165.55624682 12.46169843 -165.55320405 10.36387308 -165.54852283 8.26595569 C-165.54836048 7.09646939 -165.54819813 5.92698309 -165.54803085 4.72205782 C-165.42268169 2.12856936 -165.42268169 2.12856936 -164.42268169 1.12856936 C-161.45622446 0.96411653 -158.51246359 0.86967662 -155.54304302 0.81655765 C-154.06580666 0.78582219 -154.06580666 0.78582219 -152.55872715 0.75446582 C-149.10331665 0.6867789 -145.6478406 0.62935468 -142.19221294 0.57388186 C-140.94838155 0.55294593 -139.70455017 0.53200999 -138.42302692 0.51043963 C-92.2884027 -0.236212 -46.13895322 -0.02104411 0 0 Z " fill="#003E72" transform="translate(725.4226816892624,411.87143063545227)"/>
<path d="M0 0 C1.9470671 -0.00061847 3.89413405 -0.00166884 5.84120096 -0.00273278 C26.8869272 -0.01296733 47.92693922 0.16150493 68.97003604 0.48587391 C73.18507359 0.54973487 77.40019045 0.60794347 81.61529972 0.66684315 C89.68113419 0.78027729 97.7468738 0.89913151 105.81256534 1.0223119 C104.32756534 3.9923119 104.32756534 3.9923119 102.81256534 7.0223119 C102.15256534 7.0223119 101.49256534 7.0223119 100.81256534 7.0223119 C100.48256534 6.3623119 100.15256534 5.7023119 99.81256534 5.0223119 C38.42252085 5.00517041 -22.96752392 4.9892712 -84.35757016 4.97996876 C-85.26632781 4.9798307 -86.17508546 4.97969264 -87.11138123 4.9795504 C-106.86167634 4.97655741 -126.61197148 4.97378724 -146.36226665 4.97124657 C-156.04796719 4.96999924 -165.73366772 4.96870269 -175.41936825 4.96738026 C-176.86512488 4.96718412 -176.86512488 4.96718412 -178.34008872 4.96698402 C-209.57440166 4.96272354 -240.80871279 4.95521288 -272.04302464 4.94601468 C-304.14339819 4.93657861 -336.24377074 4.93042564 -368.34414565 4.92839691 C-372.87928938 4.92810876 -377.41443311 4.92778312 -381.94957684 4.92743465 C-382.84214813 4.92736723 -383.73471942 4.92729981 -384.65433832 4.92723034 C-399.01563707 4.92604915 -413.37693272 4.92141251 -427.73823021 4.91547986 C-442.18018761 4.90958778 -456.62214194 4.90734513 -471.0641005 4.90881052 C-479.64169469 4.90957042 -488.21927764 4.90754933 -496.7968698 4.90151435 C-502.53232175 4.89775518 -508.26776637 4.89765477 -514.00321883 4.90048008 C-517.26757257 4.90198484 -520.53190092 4.90138717 -523.7962532 4.89742871 C-542.01542506 4.84579496 -542.01542506 4.84579496 -560.18743466 6.0223119 C-559.54805966 5.7129369 -558.90868466 5.4035619 -558.24993466 5.0848119 C-556.25132644 4.18779559 -556.25132644 4.18779559 -555.18743466 3.0223119 C-541.01340331 0.71565593 -526.43090566 0.72732332 -512.11118649 0.743839 C-510.08849628 0.73881957 -508.06580807 0.73293906 -506.04312257 0.72628626 C-500.55172548 0.71066241 -495.06037978 0.70706532 -489.56896316 0.70563766 C-483.61779795 0.70191086 -477.66665988 0.68673624 -471.71551083 0.67302296 C-460.7428782 0.64938347 -449.77025509 0.63441371 -438.79760281 0.62369402 C-428.63061934 0.61366998 -418.46365298 0.59913812 -408.29668187 0.5803754 C-407.6186129 0.57912654 -406.94054393 0.57787767 -406.24192741 0.57659096 C-402.79602277 0.5702243 -399.35011827 0.56378748 -395.90421381 0.55732457 C-371.52182357 0.51172891 -347.13942742 0.47527526 -322.75701474 0.4441869 C-299.24593772 0.41419099 -275.73487352 0.37987467 -252.22381161 0.33969471 C-251.50255852 0.33846371 -250.78130542 0.3372327 -250.03819617 0.33596439 C-243.50886981 0.32481684 -236.97954354 0.3136186 -230.45021736 0.30236351 C-64.44141792 0.01630666 -64.44141792 0.01630666 0 0 Z " fill="#F94F2F" transform="translate(868.1874346584082,202.97768810391426)"/>
<path d="M0 0 C0.84315771 2.3608416 1.09729298 3.66073813 0.3984375 6.09765625 C-1 8 -1 8 -3.75 8.57421875 C-4.8225 8.61160156 -5.895 8.64898437 -7 8.6875 C-11.15465962 8.73434876 -11.15465962 8.73434876 -15 10 C-15 9.34 -15 8.68 -15 8 C-58.53475087 8.10456073 -102.0694859 8.21432713 -145.60420578 8.33111694 C-150.73890401 8.34488722 -155.87360236 8.35861421 -161.00830078 8.37231445 C-162.03056641 8.37504276 -163.05283204 8.37777106 -164.10607542 8.38058204 C-180.67842531 8.42470832 -197.25078205 8.46532426 -213.82314394 8.50465261 C-230.8162906 8.54505732 -247.80942449 8.58921184 -264.80255234 8.63687855 C-275.29596565 8.66619405 -285.78937795 8.69255244 -296.28280784 8.71517897 C-303.46957149 8.73095511 -310.65631952 8.7503595 -317.84306584 8.77266841 C-321.99510918 8.78544833 -326.14714042 8.79657939 -330.29919815 8.80341911 C-334.09515844 8.80970737 -337.8910771 8.82051797 -341.68701459 8.8350333 C-343.06523304 8.83948586 -344.44345819 8.84223207 -345.82168351 8.84316199 C-347.68538611 8.84466093 -349.54907994 8.8527992 -351.4127636 8.8613348 C-352.96999667 8.86532186 -352.96999667 8.86532186 -354.558689 8.86938947 C-357.00769617 8.83768505 -357.00769617 8.83768505 -359 10 C-359 9.34 -359 8.68 -359 8 C-436.22 8 -513.44 8 -593 8 C-589.92522146 5.95014764 -589.32013473 5.7501297 -585.8571313 5.75160301 C-585.00754011 5.74710842 -584.15794891 5.74261383 -583.28261253 5.73798305 C-581.87940141 5.74586409 -581.87940141 5.74586409 -580.4478426 5.75390434 C-579.45161734 5.75159665 -578.45539208 5.74928897 -577.42897817 5.74691135 C-574.05808068 5.74157643 -570.68737051 5.75062435 -567.31648254 5.75949097 C-564.88851031 5.75861961 -562.46053825 5.75686993 -560.0325672 5.75431263 C-554.73690322 5.75076129 -549.44129636 5.75346343 -544.14564133 5.76158905 C-536.27115444 5.77363813 -528.39669595 5.77426261 -520.52220152 5.77250507 C-507.27732817 5.76987452 -494.03247474 5.77657051 -480.78760719 5.78853989 C-467.66918654 5.80036466 -454.55077419 5.8080699 -441.43234825 5.81024551 C-440.61738256 5.81038299 -439.80241688 5.81052047 -438.96275526 5.81066212 C-434.82413573 5.81133876 -430.6855162 5.81194154 -426.54689666 5.81251587 C-397.21558496 5.81671925 -367.8842841 5.83020111 -338.55297852 5.84912109 C-310.05395567 5.86748303 -281.55493578 5.88165365 -253.0559082 5.89013672 C-251.73874276 5.8905313 -251.73874276 5.8905313 -250.39496791 5.89093385 C-241.57680763 5.89357083 -232.75864734 5.89612247 -223.94048702 5.89861157 C-205.97608685 5.9036843 -188.01168687 5.90932681 -170.04728699 5.91531372 C-168.80826356 5.91572559 -168.80826356 5.91572559 -167.54420936 5.91614578 C-112.36280169 5.93455423 -57.18140018 5.96628698 -2 6 C-1.34 4.02 -0.68 2.04 0 0 Z " fill="#FD4A28" transform="translate(919,326)"/>
<path d="M0 0 C1.30927927 3.9278378 0.35308572 5.10314743 -1.30859375 8.83984375 C-1.80810547 9.98517578 -2.30761719 11.13050781 -2.82226562 12.31054688 C-3.35529297 13.50744141 -3.88832031 14.70433594 -4.4375 15.9375 C-5.4844321 18.29787919 -6.52508816 20.6610549 -7.55859375 23.02734375 C-8.02579834 24.07656006 -8.49300293 25.12577637 -8.97436523 26.20678711 C-10.22979077 29.12988511 -10.22979077 29.12988511 -10 33 C76.46 32.67 162.92 32.34 252 32 C243.98358592 37.34427606 233.75951578 36.16633647 224.43383789 36.22119141 C223.08601562 36.23242954 221.7381966 36.2440627 220.39038086 36.25605774 C216.75662192 36.28715446 213.12284486 36.31239744 209.48903203 36.3362546 C206.45168176 36.35676993 203.41435763 36.38027314 200.37702936 36.40379179 C193.21744339 36.45921863 186.05783514 36.5099835 178.89819336 36.55761719 C171.50953249 36.60683975 164.12095005 36.66315199 156.73236853 36.72303832 C150.38149018 36.77431376 144.03059129 36.82165787 137.67965883 36.86572587 C133.88915662 36.89204099 130.09867854 36.91976513 126.30821419 36.9510994 C122.75168722 36.98029421 119.1951605 37.00457288 115.63857269 37.02499962 C113.70671171 37.03730272 111.77488475 37.05462339 109.84306335 37.07206726 C108.70058136 37.07766159 107.55809937 37.08325592 106.3809967 37.08901978 C105.38424455 37.09601709 104.38749239 37.10301441 103.36053562 37.11022377 C101 37 101 37 99 36 C99 36.66 99 37.32 99 38 C98.34 37.67 97.68 37.34 97 37 C95.50518979 36.89611373 94.00590772 36.85351382 92.50753784 36.84178162 C91.56240326 36.8319928 90.61726868 36.82220398 89.64349365 36.81211853 C88.60340149 36.80636307 87.56330933 36.8006076 86.49169922 36.79467773 C85.39900726 36.78477814 84.30631531 36.77487854 83.18051147 36.76467896 C79.55525914 36.7329969 75.92999368 36.70828002 72.3046875 36.68359375 C69.79647473 36.66303001 67.28826548 36.6420337 64.78005981 36.62062073 C58.8444346 36.57099567 52.90878617 36.5257459 46.97311127 36.48259836 C39.55365216 36.42839825 32.13425124 36.36743626 24.71484375 36.30664062 C11.47660207 36.19898582 -1.76167888 36.09736924 -15 36 C-14.30249413 31.4179103 -13.18062347 27.62787037 -11.34765625 23.359375 C-11.08746201 22.75111877 -10.82726776 22.14286255 -10.55918884 21.51617432 C-10.01181735 20.24084946 -9.4611947 18.96691551 -8.9074707 17.69433594 C-8.06040787 15.74518586 -7.22581989 13.79102991 -6.39257812 11.8359375 C-2.27535773 2.27535773 -2.27535773 2.27535773 0 0 Z " fill="#FC4F2F" transform="translate(114,769)"/>
<path d="M0 0 C-2.48262768 2.48262768 -4.23022263 2.74173737 -7.625 3.5625 C-8.62789062 3.81128906 -9.63078125 4.06007813 -10.6640625 4.31640625 C-17.21471365 5.6587528 -23.5746472 6.14712456 -30.25109863 6.12025452 C-31.43741481 6.12153615 -31.43741481 6.12153615 -32.64769697 6.12284368 C-35.27622267 6.12448011 -37.90468339 6.11900743 -40.53320312 6.11352539 C-42.42598469 6.1132431 -44.31876635 6.11340208 -46.21154785 6.1139679 C-51.33488731 6.11425422 -56.45820324 6.10838413 -61.58153725 6.10139394 C-66.94136052 6.09513295 -72.30118437 6.09455443 -77.66101074 6.09336853 C-87.80388254 6.09026331 -97.94674353 6.08206082 -108.08961058 6.07201904 C-119.63975626 6.06083279 -131.18990247 6.05534112 -142.74005222 6.05032361 C-166.49337414 6.03987753 -190.24668646 6.02229375 -214 6 C-214.2004744 6.61157455 -214.40094879 7.22314911 -214.60749817 7.85325623 C-215.00638496 9.06175987 -215.00638496 9.06175987 -215.41333008 10.29467773 C-215.67567947 11.09187729 -215.93802887 11.88907684 -216.20832825 12.71043396 C-217.20058724 15.58011131 -218.40009086 18.31370752 -219.6875 21.0625 C-220.12449219 22.00222656 -220.56148437 22.94195313 -221.01171875 23.91015625 C-221.33785156 24.59980469 -221.66398438 25.28945313 -222 26 C-222.33 26 -222.66 26 -223 26 C-222.85312929 18.6564644 -219.38028571 8.38028571 -214 3 C-211.48288588 2.89429475 -208.9927965 2.853954 -206.47488403 2.85523987 C-205.67733102 2.85171302 -204.879778 2.84818618 -204.05805671 2.84455246 C-201.36438235 2.83381089 -198.67074328 2.83017495 -195.97705078 2.82641602 C-194.05388742 2.82011457 -192.13072553 2.81334923 -190.20756531 2.80615234 C-186.05401031 2.79144864 -181.90046107 2.77973727 -177.74689102 2.77020454 C-171.17399694 2.75478002 -164.60115142 2.73082801 -158.02828979 2.70530701 C-139.33301872 2.63403983 -120.63771909 2.57443572 -101.94238281 2.52319336 C-91.62615444 2.49484163 -81.30997367 2.45942807 -70.99379528 2.41653961 C-64.46626995 2.38982843 -57.93879852 2.37188478 -51.41122937 2.36050236 C-47.33644365 2.35134038 -43.26172291 2.3339606 -39.18697548 2.31432343 C-37.30491349 2.30688398 -35.42283478 2.30276905 -33.54075813 2.30232811 C-20.73207163 2.32399829 -20.73207163 2.32399829 -8.08724785 0.43905544 C-5.37152095 -0.13220143 -2.76356743 -0.14938202 0 0 Z " fill="#FD4C2B" transform="translate(366,677)"/>
<path d="M0 0 C0.33 0 0.66 0 1 0 C0.44895796 5.98718715 -1.35653057 10.89145998 -3.7109375 16.3984375 C-4.0797403 17.27400299 -4.44854309 18.14956848 -4.82852173 19.05166626 C-5.60609341 20.890554 -6.38794112 22.72763887 -7.17382812 24.56298828 C-8.3776474 27.38119772 -9.56055881 30.20758254 -10.7421875 33.03515625 C-11.50135956 34.82344555 -12.26173413 36.61122493 -13.0234375 38.3984375 C-13.55328751 39.67018326 -13.55328751 39.67018326 -14.09384155 40.96762085 C-14.5991893 42.13486191 -14.5991893 42.13486191 -15.11474609 43.32568359 C-15.5532338 44.35657608 -15.5532338 44.35657608 -16.00057983 45.40829468 C-17 47 -17 47 -20 48 C-22.24833094 48.09439561 -24.49942905 48.12629849 -26.7497406 48.12698364 C-27.78453264 48.12932363 -27.78453264 48.12932363 -28.84022957 48.13171089 C-31.15709846 48.13570674 -33.47390208 48.13253669 -35.79077148 48.12939453 C-37.44972777 48.13074921 -39.10868375 48.13252952 -40.76763916 48.13470459 C-45.2779243 48.13927134 -49.78818662 48.13749237 -54.29847217 48.1343255 C-59.01449823 48.13179758 -63.73052232 48.13414069 -68.44654846 48.13571167 C-76.36809643 48.13753227 -84.28963508 48.13513009 -92.21118164 48.13037109 C-101.37304476 48.12493056 -110.53488562 48.12669005 -119.6967482 48.1321975 C-127.55752994 48.13673396 -135.41830498 48.1373765 -143.2790876 48.13475883 C-147.97628365 48.13319876 -152.67346922 48.1329949 -157.3706646 48.13629532 C-161.78732216 48.13918168 -166.20395101 48.13718419 -170.62060547 48.13140106 C-172.24277257 48.13007751 -173.86494208 48.13046075 -175.48710823 48.13266373 C-177.69919683 48.13539111 -179.91119306 48.13197456 -182.12327576 48.12698364 C-183.36195624 48.12660662 -184.60063673 48.12622959 -185.87685299 48.12584114 C-188.45613422 48.02191402 -190.55287612 47.7668684 -193 47 C-193 46.34 -193 45.68 -193 45 C-135.58 44.67 -78.16 44.34 -19 44 C-12.56083006 29.36552286 -6.13878721 14.75771481 0 0 Z " fill="#062857" transform="translate(868,482)"/>
<path d="M0 0 C-1.53991867 3.07983733 -4.52394159 3.33455774 -7.625 4.375 C-24.3034179 10.32855208 -40.10544752 19.03632968 -54 30 C-54.969375 30.76054687 -55.93875 31.52109375 -56.9375 32.3046875 C-86.55654219 56.08219637 -107.62343807 84.46178682 -121 120 C-121.33 120 -121.66 120 -122 120 C-122.48609656 114.39663242 -120.86949961 110.58424627 -118.5625 105.625 C-118.01843506 104.43861938 -118.01843506 104.43861938 -117.46337891 103.22827148 C-108.12920381 83.20960663 -95.89487993 65.22321212 -80.3984375 49.43359375 C-79.04718609 48.04837233 -77.72605621 46.63396388 -76.40625 45.21875 C-69.16326731 37.62670791 -61.05199883 31.44618866 -52.61303711 25.24584961 C-50.86711641 23.95204361 -50.86711641 23.95204361 -49 22 C-12.46281678 -0.48442044 -12.46281678 -0.48442044 0 0 Z " fill="#FC4A28" transform="translate(274,218)"/>
<path d="M0 0 C0.66 0 1.32 0 2 0 C3.25033597 1.57716239 4.42442042 3.21501322 5.5625 4.875 C9.04305536 9.78687069 12.76850933 14.24986783 16.85546875 18.6640625 C18.76822308 20.74753625 20.57180424 22.88489367 22.375 25.0625 C26.70808845 30.02313919 31.81374428 33.97083719 37 38 C38.40958984 39.11568359 38.40958984 39.11568359 39.84765625 40.25390625 C47.52539529 46.19562893 55.56179252 51.23372639 64 56 C64.65597168 56.37125 65.31194336 56.7425 65.98779297 57.125 C81.25025886 65.67465267 97.18613766 72.6510018 113.85473633 77.96020508 C119.78876133 79.86392836 125.41709801 82.22084615 131 85 C131 85.33 131 85.66 131 86 C122.96504257 85.57390377 115.89504698 82.55677477 108.5 79.625 C107.81903259 79.35778137 107.13806519 79.09056274 106.4364624 78.81524658 C79.10806477 68.08139989 54.20335394 55.912037 31.5078125 37.078125 C29.76351152 35.63269179 27.98414926 34.22896648 26.1796875 32.859375 C25.46039063 32.24578125 24.74109375 31.6321875 24 31 C24 30.34 24 29.68 24 29 C23.44699219 28.78085937 22.89398438 28.56171875 22.32421875 28.3359375 C19.2741001 26.58276006 17.13457215 24.21735757 14.8125 21.625 C14.33707764 21.09914307 13.86165527 20.57328613 13.37182617 20.03149414 C0 5.0246654 0 5.0246654 0 0 Z " fill="#FC4827" transform="translate(167,480)"/>
<path d="M0 0 C6.15521117 0.57110207 11.59719536 1.94289964 17.4375 3.9375 C18.25154297 4.20240234 19.06558594 4.46730469 19.90429688 4.74023438 C20.67708984 4.99998047 21.44988281 5.25972656 22.24609375 5.52734375 C22.94404053 5.76187256 23.6419873 5.99640137 24.36108398 6.23803711 C26 7 26 7 27 9 C28.65984772 9.36577921 30.32840326 9.69234237 32 10 C33.97137902 10.71060141 35.92637123 11.46754557 37.8671875 12.2578125 C38.99334473 12.71518799 40.11950195 13.17256348 41.27978516 13.64379883 C42.46620605 14.13259521 43.65262695 14.6213916 44.875 15.125 C46.08849121 15.62346436 47.30198242 16.12192871 48.55224609 16.63549805 C72.76455525 26.64327409 72.76455525 26.64327409 83 34 C84.18544156 34.75324933 85.37271497 35.50363023 86.5625 36.25 C87.366875 36.8275 88.17125 37.405 89 38 C89 38.66 89 39.32 89 40 C85.67030187 38.73112494 82.59924636 37.30006352 79.5078125 35.53125 C59.80710429 24.42125745 39.52192265 16.0004412 18.26953125 8.32421875 C12.09593783 6.07690315 6.04085708 3.5806064 0 1 C0 0.67 0 0.34 0 0 Z " fill="#FC4C2B" transform="translate(357,457)"/>
<path d="M0 0 C3.86933162 0.57323431 6.15222057 2.38953552 9 5 C9 5.66 9 6.32 9 7 C9.66 7 10.32 7 11 7 C13.54779843 9.46516713 15.73683539 12.27442062 18 15 C18.64582031 15.75925781 19.29164063 16.51851562 19.95703125 17.30078125 C34.05721019 34.29330459 49.31162278 60.33070393 49.0625 83.25 C49.05347656 84.32765625 49.04445313 85.4053125 49.03515625 86.515625 C49.02355469 87.33546875 49.01195312 88.1553125 49 89 C48.67 89 48.34 89 48 89 C47.80422363 88.1478894 47.80422363 88.1478894 47.60449219 87.27856445 C40.10989915 54.81621377 28.73222012 29.12088066 4.5715332 5.55664062 C3.03211833 4.05354359 1.51390418 2.52878807 0 1 C0 0.67 0 0.34 0 0 Z " fill="#FB4A28" transform="translate(468,513)"/>
<path d="M0 0 C52.8 0 105.6 0 160 0 C158.06999632 6.4333456 156.18097223 12.41220279 153.5 18.5 C153.20480469 19.20125 152.90960937 19.9025 152.60546875 20.625 C151.07349796 24.13436039 150.25594592 25.82936939 147 28 C150.03498124 18.89505629 153.52143891 9.94487137 157 1 C105.19 1 53.38 1 0 1 C0 0.67 0 0.34 0 0 Z " fill="#011A46" transform="translate(677,559)"/>
<path d="M0 0 C1.15885713 3.40610036 0.81580574 5.41132581 -0.25 8.8125 C-1.56226854 13.32718534 -2.67007096 17.83304019 -3.625 22.4375 C-3.98464844 24.16806641 -3.98464844 24.16806641 -4.3515625 25.93359375 C-6.42997592 37.94728009 -6.12108559 50.10620146 -6.0625 62.25 C-6.05747327 64.07421752 -6.05291244 65.89843638 -6.04882812 67.72265625 C-6.03791939 72.14847132 -6.02071994 76.57422043 -6 81 C-8.55683469 76.05678627 -9.18018453 71.9702246 -9.23828125 66.45703125 C-9.24793915 65.70446548 -9.25759705 64.95189972 -9.26754761 64.17652893 C-9.29250639 61.72180298 -9.30496982 59.2673395 -9.3125 56.8125 C-9.31545074 55.9789801 -9.31840149 55.14546021 -9.32144165 54.28668213 C-9.33569535 36.6065577 -7.83125503 18.83767999 -2 2 C-1.34 1.34 -0.68 0.68 0 0 Z " fill="#FC4928" transform="translate(151,339)"/>
<path d="M0 0 C0.33 0 0.66 0 1 0 C1 1.98 1 3.96 1 6 C1.66 6 2.32 6 3 6 C3.75983873 40.99934086 3.75983873 40.99934086 1.1875 56.0625 C1.02217773 57.04089844 0.85685547 58.01929688 0.68652344 59.02734375 C-0.68045133 66.13252331 -0.68045133 66.13252331 -4 69 C-3.50097769 62.32885968 -2.7085383 55.79571245 -1.5 49.21484375 C0.15233461 38.59084853 0.11823451 28.09916026 0.0625 17.375 C0.05747477 15.68619924 0.05291368 13.99739704 0.04882812 12.30859375 C0.03790399 8.20569289 0.0206958 4.10286273 0 0 Z " fill="#FA4928" transform="translate(517,604)"/>
<path d="M0 0 C1 4 1 4 -3 14 C-42.6 14 -82.2 14 -123 14 C-123 13.67 -123 13.34 -123 13 C-84.39 12.67 -45.78 12.34 -6 12 C-4.68 9.36 -3.36 6.72 -2 4 C-1.34 2.68 -0.68 1.36 0 0 Z " fill="#0A3766" transform="translate(798,648)"/>
<path d="M0 0 C0.33 0 0.66 0 1 0 C0.5856342 6.51524092 -1.90994631 11.17085991 -5.0625 16.8125 C-5.99436276 18.50460005 -6.92292495 20.19852335 -7.84765625 21.89453125 C-8.26023682 22.63550049 -8.67281738 23.37646973 -9.09790039 24.13989258 C-10.14545444 25.95537134 -10.14545444 25.95537134 -10 28 C-11.31991903 29.34661402 -12.65626402 30.67715111 -14 32 C-15.42244615 33.85489154 -16.81635512 35.731871 -18.1875 37.625 C-21.94413814 42.70860982 -25.93607099 47.41057617 -30.25 52.0390625 C-32.05224408 53.88625493 -32.05224408 53.88625493 -33 56 C-33.99 55.67 -34.98 55.34 -36 55 C-35.26136719 54.175 -34.52273438 53.35 -33.76171875 52.5 C-26.07847746 43.79862079 -19.32605728 34.7276005 -13 25 C-12.41476562 24.10667969 -11.82953125 23.21335937 -11.2265625 22.29296875 C-6.78882768 15.21372511 -3.42661573 7.60343728 0 0 Z " fill="#FB4926" transform="translate(506,692)"/>
<path d="M0 0 C-1.58496877 4.28754373 -4.84741091 6.7754235 -8.25 9.625 C-8.87261719 10.15061523 -9.49523437 10.67623047 -10.13671875 11.21777344 C-20.4599512 19.82219807 -31.70750822 28.41555285 -44 34 C-44.99 33.67 -45.98 33.34 -47 33 C-46.17757813 32.50371094 -45.35515625 32.00742187 -44.5078125 31.49609375 C-30.03008325 22.6857435 -16.08748364 13.02090301 -3.70703125 1.3984375 C-2 0 -2 0 0 0 Z " fill="#FC4825" transform="translate(470,749)"/>
<path d="M0 0 C0.33 0 0.66 0 1 0 C0.59265536 5.974388 -1.45485118 10.70888218 -3.94140625 16.1328125 C-4.99770803 18.99379222 -5.21544328 20.98379415 -5 24 C-5.66 24 -6.32 24 -7 24 C-7.31751221 24.77714355 -7.63502441 25.55428711 -7.9621582 26.35498047 C-9.14570648 29.2392723 -10.33747461 32.11998486 -11.53491211 34.99853516 C-12.05125236 36.24456063 -12.56430333 37.49195449 -13.07397461 38.74072266 C-13.80755243 40.5364526 -14.55400618 42.32690555 -15.30078125 44.1171875 C-15.74591064 45.19597168 -16.19104004 46.27475586 -16.6496582 47.38623047 C-18 50 -18 50 -21 52 C-18.50834279 44.07978379 -15.38733793 36.46893671 -12.1875 28.8125 C-11.67355882 27.5749816 -11.15988566 26.33735185 -10.64648438 25.09960938 C-7.15909699 16.70643991 -3.59591324 8.34716895 0 0 Z " fill="#0A2B55" transform="translate(820,595)"/>
<path d="M0 0 C1.25665209 2.85602748 0.96456014 4.11074957 0 7.125 C-5.20625292 18.1291255 -13.22841706 26.4113963 -24 32 C-27 32.8125 -27 32.8125 -29 33 C-28 30 -28 30 -25.7421875 28.60546875 C-24.79601562 28.13753906 -23.84984375 27.66960938 -22.875 27.1875 C-10.74525345 20.74651055 -6.01430451 12.17353202 0 0 Z " fill="#FE4A28" transform="translate(396,644)"/>
<path d="M0 0 C12.59849149 3.81828366 23.50465809 12.7642161 30.13671875 24.13671875 C31.329221 26.71058107 31.78880933 29.18412437 32 32 C29 30 29 30 27.375 26.5 C22.38014403 16.11446927 13.15957498 8.60768773 2.73828125 4 C1 3 1 3 0 0 Z " fill="#FD4827" transform="translate(364,590)"/>
<path d="M0 0 C1.36537712 4.09613136 0.14260992 5.6942508 -1.52734375 9.63671875 C-1.79511124 10.27615921 -2.06287872 10.91559967 -2.33876038 11.57441711 C-3.19610039 13.6160006 -4.06658152 15.65167706 -4.9375 17.6875 C-5.52105642 19.07059505 -6.10374956 20.45405468 -6.68554688 21.83789062 C-8.11370466 25.2295481 -9.55370065 28.61603239 -11 32 C-11.66 32 -12.32 32 -13 32 C-12.42107591 27.7735805 -11.4258231 24.16775593 -9.78515625 20.234375 C-9.34623047 19.17992187 -8.90730469 18.12546875 -8.45507812 17.0390625 C-7.99552734 15.95367188 -7.53597656 14.86828125 -7.0625 13.75 C-6.60681641 12.64914062 -6.15113281 11.54828125 -5.68164062 10.4140625 C-2.26127646 2.26127646 -2.26127646 2.26127646 0 0 Z " fill="#FC4826" transform="translate(114,769)"/>
<path d="M0 0 C2 1 2 1 2.859375 3.40625 C3.15328125 4.4271875 3.4471875 5.448125 3.75 6.5 C6.76129352 15.86723409 11.81961664 22.39319756 19 29 C18.67 29.66 18.34 30.32 18 31 C9.22786246 23.6118162 3.0093788 16.28517049 0 5 C-0.125 2.125 -0.125 2.125 0 0 Z " fill="#FD4926" transform="translate(271,399)"/>
<path d="M0 0 C0.99 0.33 1.98 0.66 3 1 C3 2.32 3 3.64 3 5 C3.66 5.33 4.32 5.66 5 6 C4.34 6 3.68 6 3 6 C3.02320313 7.10859375 3.04640625 8.2171875 3.0703125 9.359375 C3.08907577 10.82290992 3.10727537 12.28645214 3.125 13.75 C3.14175781 14.47960937 3.15851562 15.20921875 3.17578125 15.9609375 C3.21072239 19.8044624 3.17499684 22.74606772 1 26 C0.67 26 0.34 26 0 26 C0 17.42 0 8.84 0 0 Z " fill="#093464" transform="translate(674,530)"/>
<path d="M0 0 C1.09825853 2.76166865 1.01350717 3.95718622 0.10375977 6.84082031 C-0.36231689 7.90913086 -0.82839355 8.97744141 -1.30859375 10.078125 C-1.80810547 11.23828125 -2.30761719 12.3984375 -2.82226562 13.59375 C-3.35529297 14.8003125 -3.88832031 16.006875 -4.4375 17.25 C-4.97305165 18.48392135 -5.50756912 19.7182921 -6.04101562 20.953125 C-7.35055808 23.97333102 -8.67053281 26.98852421 -10 30 C-10.99 30 -11.98 30 -13 30 C-11.31250727 25.88694992 -9.62177162 21.77525315 -7.92797852 17.66479492 C-7.35188243 16.26542583 -6.77668409 14.86568681 -6.20239258 13.46557617 C-5.37815688 11.45654609 -4.55073255 9.44885583 -3.72265625 7.44140625 C-3.22515869 6.23170166 -2.72766113 5.02199707 -2.21508789 3.77563477 C-1 1 -1 1 0 0 Z " fill="#FC4725" transform="translate(952,249)"/>
<path d="M0 0 C3.3 0.33 6.6 0.66 10 1 C6.39889863 4.60110137 0.90484933 4.99721749 -3.9375 6.1875 C-5.04802734 6.47302734 -6.15855469 6.75855469 -7.30273438 7.05273438 C-8.36685547 7.31763672 -9.43097656 7.58253906 -10.52734375 7.85546875 C-11.50437256 8.09934326 -12.48140137 8.34321777 -13.48803711 8.59448242 C-16 9 -16 9 -19 8 C-16.87044686 5.87044686 -15.90435731 5.51019088 -13.0859375 4.7109375 C-11.94511719 4.38222656 -11.94511719 4.38222656 -10.78125 4.046875 C-9.9871875 3.82515625 -9.193125 3.6034375 -8.375 3.375 C-7.57320313 3.14554688 -6.77140625 2.91609375 -5.9453125 2.6796875 C-3.96520363 2.11394211 -1.98280967 1.55620571 0 1 C0 0.67 0 0.34 0 0 Z " fill="#FC4D2A" transform="translate(296,208)"/>
<path d="M0 0 C-0.33 0.99 -0.66 1.98 -1 3 C-3.56588475 4.16308271 -6.03568185 5.14411125 -8.6875 6.0625 C-9.39583984 6.31837891 -10.10417969 6.57425781 -10.83398438 6.83789062 C-12.88417133 7.57429203 -14.94108501 8.28844062 -17 9 C-18.08152344 9.38800781 -19.16304688 9.77601563 -20.27734375 10.17578125 C-23.60052572 11.18179473 -26.54824733 11.13807011 -30 11 C-29.67 10.34 -29.34 9.68 -29 9 C-27.05859375 8.359375 -27.05859375 8.359375 -24.4375 7.75 C-18.54227129 6.25292218 -12.96491738 4.18932935 -7.30834961 1.98144531 C-2.19169811 0 -2.19169811 0 0 0 Z " fill="#FC4827" transform="translate(413,787)"/>
<path d="M0 0 C1.53680536 3.91497046 0.39081212 6.24361565 -1.203125 10.0078125 C-1.68910156 11.15894531 -2.17507813 12.31007813 -2.67578125 13.49609375 C-3.19527344 14.69363281 -3.71476563 15.89117187 -4.25 17.125 C-5.00603516 18.93291016 -5.00603516 18.93291016 -5.77734375 20.77734375 C-9.60980426 29.73986951 -9.60980426 29.73986951 -13 32 C-10.86932161 25.16222942 -8.23431275 18.62508394 -5.375 12.0625 C-4.96765625 11.11826172 -4.5603125 10.17402344 -4.140625 9.20117188 C-1.20076885 2.4015377 -1.20076885 2.4015377 0 0 Z " fill="#092955" transform="translate(886,440)"/>
<path d="M0 0 C1.30877514 3.60955181 0.6657647 5.46383913 -0.8125 8.9375 C-2.9419164 14.36714594 -3.8346488 19.57081262 -4.5078125 25.34765625 C-5 28 -5 28 -7 30 C-7.57828313 19.11970999 -6.06802177 9.20665372 0 0 Z " fill="#FE4927" transform="translate(277,367)"/>
<path d="M0 0 C1.65 0 3.3 0 5 0 C3.38455035 6.40025768 1.09785955 12.44536061 -1.5 18.5 C-1.79656494 19.20640625 -2.09312988 19.9128125 -2.39868164 20.640625 C-3.93234236 24.14322609 -4.74856239 25.83237493 -8 28 C-5.97607539 21.72555221 -3.73023007 15.57015561 -1.3125 9.4375 C-0.99216797 8.61958984 -0.67183594 7.80167969 -0.34179688 6.95898438 C0.43678254 4.97186378 1.21809845 2.98581573 2 1 C1.34 0.67 0.68 0.34 0 0 Z " fill="#092954" transform="translate(832,559)"/>
<path d="M0 0 C1 4 1 4 -3 14 C-14.55 14 -26.1 14 -38 14 C-38 13.67 -38 13.34 -38 13 C-27.44 12.67 -16.88 12.34 -6 12 C-4.68 9.36 -3.36 6.72 -2 4 C-1.34 2.68 -0.68 1.36 0 0 Z " fill="#0D3764" transform="translate(798,648)"/>
<path d="M0 0 C0 0.66 0 1.32 0 2 C-0.73863281 2.21914063 -1.47726562 2.43828125 -2.23828125 2.6640625 C-8.83372707 4.7256631 -14.66617605 7.22788622 -20.625 10.73046875 C-22.7898014 11.88764055 -24.60347992 12.53955748 -27 13 C-23.46094371 9.16326608 -20.05480915 6.66833573 -15.4375 4.25 C-14.32246094 3.65703125 -13.20742188 3.0640625 -12.05859375 2.453125 C-7.80186261 0.43076997 -4.69071338 -0.13029759 0 0 Z " fill="#FD4A28" transform="translate(321,335)"/>
<path d="M0 0 C1.29166437 3.5825603 0.71500016 5.46474452 -0.765625 8.9140625 C-1.16136719 9.83960938 -1.55710937 10.76515625 -1.96484375 11.71875 C-2.38894531 12.6778125 -2.81304688 13.636875 -3.25 14.625 C-3.65863281 15.59179688 -4.06726563 16.55859375 -4.48828125 17.5546875 C-7.60898079 24.73932053 -7.60898079 24.73932053 -11 27 C-10.38631398 23.40624179 -9.41145342 20.29780516 -7.96875 16.953125 C-7.57042969 16.02628906 -7.17210937 15.09945312 -6.76171875 14.14453125 C-6.34535156 13.18933594 -5.92898438 12.23414063 -5.5 11.25 C-5.08363281 10.27933594 -4.66726563 9.30867187 -4.23828125 8.30859375 C-1.14043257 1.14043257 -1.14043257 1.14043257 0 0 Z " fill="#FC4926" transform="translate(968,212)"/>
<path d="M0 0 C6.50805152 1.28988408 12.42019813 3.1377469 18.5625 5.625 C19.78936523 6.11226562 19.78936523 6.11226562 21.04101562 6.609375 C23.02975306 7.40021796 25.01523399 8.19924219 27 9 C27 9.33 27 9.66 27 10 C21.17616425 10.50435179 16.59963395 8.71091558 11.25 6.6875 C10.38761719 6.37876953 9.52523438 6.07003906 8.63671875 5.75195312 C7.81300781 5.44580078 6.98929687 5.13964844 6.140625 4.82421875 C5.39329102 4.54666748 4.64595703 4.26911621 3.87597656 3.9831543 C2 3 2 3 0 0 Z " fill="#FE4726" transform="translate(318,573)"/>
<path d="M0 0 C-8.45537447 5.63691631 -20.27460477 2.98130114 -30 2 C-30 1.67 -30 1.34 -30 1 C-26.50014278 0.83024428 -23.00009554 0.66476277 -19.5 0.5 C-18.51773437 0.45230469 -17.53546875 0.40460937 -16.5234375 0.35546875 C-11.00800467 0.09808188 -5.52135535 -0.05258434 0 0 Z " fill="#FD4827" transform="translate(366,801)"/>
<path d="M0 0 C4.90119023 0.46150567 8.06289212 2.92380361 11.8125 5.875 C12.40998047 6.32230469 13.00746094 6.76960938 13.62304688 7.23046875 C15.14507654 8.40982431 16.58054189 9.69900326 18 11 C18 11.99 18 12.98 18 14 C17.28714844 13.48050781 16.57429688 12.96101563 15.83984375 12.42578125 C14.88207031 11.72839844 13.92429687 11.03101563 12.9375 10.3125 C11.93976563 9.58546875 10.94203125 8.8584375 9.9140625 8.109375 C7.56056959 6.40577424 5.19299208 4.72786483 2.8125 3.0625 C1.884375 2.381875 0.95625 1.70125 0 1 C0 0.67 0 0.34 0 0 Z " fill="#FC4626" transform="translate(448,498)"/>
<path d="M0 0 C-1.55636242 3.62590381 -3.7792923 6.16858915 -6.4375 9.0625 C-7.21996094 9.91972656 -8.00242187 10.77695312 -8.80859375 11.66015625 C-10.50920867 13.47596434 -12.22417904 15.25843926 -14 17 C-14 10.49342879 -8.11450465 5.88140657 -3.8046875 1.5390625 C-2 0 -2 0 0 0 Z " fill="#FD4826" transform="translate(293,349)"/>
<path d="M0 0 C2.66853907 0.32206506 5.3343679 0.65542996 8 1 C9.134375 1.144375 10.26875 1.28875 11.4375 1.4375 C12.283125 1.623125 13.12875 1.80875 14 2 C14.33 2.66 14.66 3.32 15 4 C17.01669827 5.13350534 17.01669827 5.13350534 19 6 C19 6.66 19 7.32 19 8 C12.54646385 5.94235079 6.2638737 3.57616518 0 1 C0 0.67 0 0.34 0 0 Z " fill="#FD4928" transform="translate(306,438)"/>
<path d="M0 0 C0.66 0.99 1.32 1.98 2 3 C1.58447266 4.80932617 1.58447266 4.80932617 0.6640625 6.79296875 C0.34179688 7.50517578 0.01953125 8.21738281 -0.3125 8.95117188 C-0.663125 9.68916016 -1.01375 10.42714844 -1.375 11.1875 C-1.71789062 11.93708984 -2.06078125 12.68667969 -2.4140625 13.45898438 C-3.26371255 15.31169351 -4.13028359 17.15662546 -5 19 C-5.33 19 -5.66 19 -6 19 C-5.59524765 11.84937514 -3.17476348 6.37295696 0 0 Z " fill="#FD4321" transform="translate(149,684)"/>
<path d="M0 0 C6.64398897 0.42184057 12.2083865 1.57415719 18 5 C18.33 5.66 18.66 6.32 19 7 C12.28460827 5.70024676 6.27980887 3.70071112 0 1 C0 0.67 0 0.34 0 0 Z " fill="#FD4B2A" transform="translate(337,450)"/>
<path d="M0 0 C0.33 0 0.66 0 1 0 C0.55259069 6.15187805 -0.6478927 11.71754125 -4 17 C-4.99 17.33 -5.98 17.66 -7 18 C-5.06375702 11.79522136 -2.74390859 5.89174281 0 0 Z " fill="#FC4826" transform="translate(932,295)"/>
<path d="M0 0 C6.46712188 1.16194152 12.09622349 3.1248748 18 6 C18 6.33 18 6.66 18 7 C11.74532555 6.54511459 6.46840714 5.17095819 1 2 C0.67 1.34 0.34 0.68 0 0 Z " fill="#FD4827" transform="translate(299,566)"/>
<path d="M0 0 C0.33 0 0.66 0 1 0 C1.51941561 6.10313344 0.11313722 10.70539436 -3 16 C-3.66 16.33 -4.32 16.66 -5 17 C-4.54619105 15.10307857 -4.08675008 13.20750405 -3.625 11.3125 C-3.36976563 10.25675781 -3.11453125 9.20101562 -2.8515625 8.11328125 C-2.08094511 5.29593234 -1.14501457 2.68331675 0 0 Z " fill="#FB4723" transform="translate(512,674)"/>
<path d="M0 0 C2.27034075 2.94050157 4.30412051 5.96058433 6.25 9.125 C7.06210938 10.42824219 7.06210938 10.42824219 7.890625 11.7578125 C8.25671875 12.49773437 8.6228125 13.23765625 9 14 C8.67 14.66 8.34 15.32 8 16 C3.77927643 12.23149681 0.2434476 7.8605093 -0.25 2.0625 C-0.1675 1.381875 -0.085 0.70125 0 0 Z " fill="#FB4725" transform="translate(158,463)"/>
<path d="M0 0 C1 2 1 2 0.07421875 4.78515625 C-0.38339844 5.86667969 -0.84101562 6.94820312 -1.3125 8.0625 C-1.76238281 9.14660156 -2.21226563 10.23070312 -2.67578125 11.34765625 C-4 14 -4 14 -6 15 C-5.46147465 9.72245155 -4.34981281 5.69962561 -2 1 C-1.34 0.67 -0.68 0.34 0 0 Z " fill="#FD4624" transform="translate(124,746)"/>
<path d="M0 0 C-2.79241566 2.79241566 -5.14808387 3.19234017 -9 4 C-11.74749209 3.88012687 -14.28057673 3.4770918 -17 3 C-17 2.67 -17 2.34 -17 2 C-5.47835991 -0.29612756 -5.47835991 -0.29612756 0 0 Z " fill="#FE4926" transform="translate(366,677)"/>
<path d="M0 0 C0.66 0 1.32 0 2 0 C2.36463732 1.74784829 2.7163078 3.49840502 3.0625 5.25 C3.25972656 6.22453125 3.45695313 7.1990625 3.66015625 8.203125 C3.98397535 10.868119 3.85503199 12.48871723 3 15 C0.31780178 9.63560356 -0.3152595 5.98993047 0 0 Z " fill="#FC4523" transform="translate(145,424)"/>
<path d="M0 0 C1.305239 3.91571701 0.32239848 5.03892997 -1.4375 8.6875 C-1.91058594 9.68136719 -2.38367188 10.67523437 -2.87109375 11.69921875 C-3.42990234 12.83810547 -3.42990234 12.83810547 -4 14 C-4.33 14 -4.66 14 -5 14 C-4.49580302 8.95803017 -3.75495562 3.75495562 0 0 Z " fill="#FD4523" transform="translate(130,731)"/>
<path d="M0 0 C5.15464734 0.48324819 8.81550319 3.18610761 13 6 C12.01 6.495 12.01 6.495 11 7 C8.65234375 6.07421875 8.65234375 6.07421875 5.9375 4.6875 C5.03902344 4.23761719 4.14054687 3.78773438 3.21484375 3.32421875 C1 2 1 2 0 0 Z " fill="#FE4421" transform="translate(292,431)"/>
<path d="M0 0 C0.93045933 2.55144824 1.08564091 3.74006478 0.22265625 6.359375 C-0.16019531 7.14828125 -0.54304687 7.9371875 -0.9375 8.75 C-1.31777344 9.54921875 -1.69804688 10.3484375 -2.08984375 11.171875 C-2.39019531 11.77515625 -2.69054687 12.3784375 -3 13 C-3.99 12.67 -4.98 12.34 -6 12 C-4 8 -2 4 0 0 Z " fill="#092750" transform="translate(798,648)"/>
<path d="M0 0 C0.88336837 2.4667645 1.1312406 3.63859372 0.22265625 6.140625 C-0.16019531 6.83671875 -0.54304687 7.5328125 -0.9375 8.25 C-1.31777344 8.95640625 -1.69804688 9.6628125 -2.08984375 10.390625 C-2.39019531 10.92171875 -2.69054687 11.4528125 -3 12 C-3.66 12 -4.32 12 -5 12 C-3.68938409 7.76570244 -2.05643741 3.92592596 0 0 Z " fill="#FD4624" transform="translate(938,282)"/>
<path d="M0 0 C0 0.66 0 1.32 0 2 C-2.64458379 3.32229189 -4.67761301 3.09677194 -7.625 3.0625 C-8.62789063 3.05347656 -9.63078125 3.04445313 -10.6640625 3.03515625 C-11.43492187 3.02355469 -12.20578125 3.01195312 -13 3 C-8.55956658 0.68570631 -5.03693007 0 0 0 Z " fill="#FD4723" transform="translate(380,798)"/>
<path d="M0 0 C0.33 0.66 0.66 1.32 1 2 C0.00390625 4.3828125 0.00390625 4.3828125 -1.4375 7.125 C-1.91058594 8.03507813 -2.38367188 8.94515625 -2.87109375 9.8828125 C-3.24363281 10.58148437 -3.61617187 11.28015625 -4 12 C-5.11889609 8.59825551 -4.9845447 7.95657797 -3.6875 4.3125 C-2 1 -2 1 0 0 Z " fill="#0E315C" transform="translate(854,518)"/>
<path d="M0 0 C3.31038651 1.65519326 3.78867011 4.65442221 5 8 C4.67 8.99 4.34 9.98 4 11 C2 10 2 10 0.875 7.75 C-0.00513321 4.98386705 -0.1645438 2.87951649 0 0 Z " fill="#FD4625" transform="translate(152,450)"/>
<path d="M0 0 C0.66 0 1.32 0 2 0 C1.55090939 1.48199902 1.09043436 2.96055236 0.625 4.4375 C0.36976563 5.26121094 0.11453125 6.08492187 -0.1484375 6.93359375 C-1 9 -1 9 -3 10 C-2.25 3.375 -2.25 3.375 0 0 Z " fill="#FD4725" transform="translate(141,704)"/>
<path d="M0 0 C1.18851562 0.19464844 2.37703125 0.38929688 3.6015625 0.58984375 C4.97441406 0.82380859 4.97441406 0.82380859 6.375 1.0625 C3.06429162 2.06359515 0.07415231 2.16606134 -3.375 2.125 C-4.35984375 2.11597656 -5.3446875 2.10695313 -6.359375 2.09765625 C-7.10703125 2.08605469 -7.8546875 2.07445312 -8.625 2.0625 C-8.625 1.4025 -8.625 0.7425 -8.625 0.0625 C-5.61666904 -1.44166548 -3.27538422 -0.54589737 0 0 Z " fill="#FB5637" transform="translate(329.625,333.9375)"/>
<path d="M0 0 C0.33 0 0.66 0 1 0 C0.50769231 6.4 0.50769231 6.4 -2.0625 9.4375 C-2.701875 9.953125 -3.34125 10.46875 -4 11 C-2.95902388 7.13351728 -1.96301592 3.50538557 0 0 Z " fill="#FB4725" transform="translate(924,314)"/>
<path d="M0 0 C0.33 0 0.66 0 1 0 C1.95261487 4.76307437 2.08333357 9.1666528 2 14 C-0.07384637 11.71823587 -0.98397191 10.55676517 -1.07421875 7.421875 C-0.94660156 6.54015625 -0.81898438 5.6584375 -0.6875 4.75 C-0.56761719 3.85796875 -0.44773437 2.9659375 -0.32421875 2.046875 C-0.21722656 1.37140625 -0.11023438 0.6959375 0 0 Z " fill="#F4563A" transform="translate(517,596)"/>
<path d="M0 0 C1.27875 0.103125 2.5575 0.20625 3.875 0.3125 C4.95394531 0.39951172 4.95394531 0.39951172 6.0546875 0.48828125 C8 1 8 1 10 4 C8.51882199 3.71872579 7.04006751 3.42466268 5.5625 3.125 C4.73878906 2.96257812 3.91507812 2.80015625 3.06640625 2.6328125 C2.38449219 2.42398437 1.70257813 2.21515625 1 2 C0.67 1.34 0.34 0.68 0 0 Z " fill="#FE4321" transform="translate(346,453)"/>
<path d="M0 0 C2.97 0.33 5.94 0.66 9 1 C9.33 1.99 9.66 2.98 10 4 C6.7 3.01 3.4 2.02 0 1 C0 0.67 0 0.34 0 0 Z " fill="#FE4825" transform="translate(326,446)"/>
<path d="M0 0 C0.99 0.33 1.98 0.66 3 1 C-0.465 3.97 -0.465 3.97 -4 7 C-4.66 6.67 -5.32 6.34 -6 6 C-2.25 1.125 -2.25 1.125 0 0 Z " fill="#FD4523" transform="translate(218,246)"/>
<path d="M0 0 C0.33 0.99 0.66 1.98 1 3 C-0.9375 5.6875 -0.9375 5.6875 -3 8 C-3.99 7.67 -4.98 7.34 -6 7 C-4.02 4.69 -2.04 2.38 0 0 Z " fill="#FC421F" transform="translate(476,740)"/>
<path d="M0 0 C0.66 0.99 1.32 1.98 2 3 C1.125 5.6875 1.125 5.6875 0 8 C-0.99 8 -1.98 8 -3 8 C-1.125 2.25 -1.125 2.25 0 0 Z " fill="#FB4C2B" transform="translate(149,684)"/>
<path d="M0 0 C2.97 0.99 5.94 1.98 9 3 C9 3.33 9 3.66 9 4 C5.625 3.6875 5.625 3.6875 2 3 C1.34 2.01 0.68 1.02 0 0 Z " fill="#FE4221" transform="translate(346,583)"/>
<path d="M0 0 C0.99 0.33 1.98 0.66 3 1 C2.67 1.66 2.34 2.32 2 3 C1.77377919 4.70363822 1.59111527 6.41328701 1.4375 8.125 C1.35371094 9.03507813 1.26992188 9.94515625 1.18359375 10.8828125 C1.12300781 11.58148437 1.06242188 12.28015625 1 13 C0.67 13 0.34 13 0 13 C0 8.71 0 4.42 0 0 Z " fill="#02295A" transform="translate(674,530)"/>
<path d="M0 0 C2.64 0 5.28 0 8 0 C8 0.33 8 0.66 8 1 C5.36 1 2.72 1 0 1 C0 0.67 0 0.34 0 0 Z " fill="#F36349" transform="translate(475,335)"/>
<path d="M0 0 C2.31 0 4.62 0 7 0 C7 0.33 7 0.66 7 1 C4.69 1 2.38 1 0 1 C0 0.67 0 0.34 0 0 Z " fill="#16436D" transform="translate(595,806)"/>
<path d="M0 0 C2.31 0 4.62 0 7 0 C7 0.33 7 0.66 7 1 C4.69 1 2.38 1 0 1 C0 0.67 0 0.34 0 0 Z " fill="#17446D" transform="translate(582,806)"/>
<path d="M0 0 C2.31 0 4.62 0 7 0 C7 0.33 7 0.66 7 1 C4.69 1 2.38 1 0 1 C0 0.67 0 0.34 0 0 Z " fill="#F35E42" transform="translate(278,806)"/>
<path d="M0 0 C2.31 0 4.62 0 7 0 C7 0.33 7 0.66 7 1 C4.69 1 2.38 1 0 1 C0 0.67 0 0.34 0 0 Z " fill="#F35D42" transform="translate(200,806)"/>
<path d="M0 0 C2.31 0 4.62 0 7 0 C7 0.33 7 0.66 7 1 C4.69 1 2.38 1 0 1 C0 0.67 0 0.34 0 0 Z " fill="#0E4573" transform="translate(760,663)"/>
<path d="M0 0 C2.31 0 4.62 0 7 0 C7 0.33 7 0.66 7 1 C4.69 1 2.38 1 0 1 C0 0.67 0 0.34 0 0 Z " fill="#0B4577" transform="translate(696,663)"/>
<path d="M0 0 C2.31 0 4.62 0 7 0 C7 0.33 7 0.66 7 1 C4.69 1 2.38 1 0 1 C0 0.67 0 0.34 0 0 Z " fill="#E9614A" transform="translate(883,335)"/>
<path d="M0 0 C2.31 0 4.62 0 7 0 C7 0.33 7 0.66 7 1 C4.69 1 2.38 1 0 1 C0 0.67 0 0.34 0 0 Z " fill="#ED624A" transform="translate(693,335)"/>
<path d="M0 0 C2.31 0 4.62 0 7 0 C7 0.33 7 0.66 7 1 C4.69 1 2.38 1 0 1 C0 0.67 0 0.34 0 0 Z " fill="#EE6349" transform="translate(588,335)"/>
<path d="M0 0 C2.31 0 4.62 0 7 0 C7 0.33 7 0.66 7 1 C4.69 1 2.38 1 0 1 C0 0.67 0 0.34 0 0 Z " fill="#F06248" transform="translate(580,335)"/>
<path d="M0 0 C2.31 0 4.62 0 7 0 C7 0.33 7 0.66 7 1 C4.69 1 2.38 1 0 1 C0 0.67 0 0.34 0 0 Z " fill="#F46248" transform="translate(467,335)"/>
<path d="M0 0 C1.98 0 3.96 0 6 0 C6 0.33 6 0.66 6 1 C4.02 1 2.04 1 0 1 C0 0.67 0 0.34 0 0 Z " fill="#F45F41" transform="translate(297,806)"/>
<path d="M0 0 C1.98 0 3.96 0 6 0 C6 0.33 6 0.66 6 1 C4.02 1 2.04 1 0 1 C0 0.67 0 0.34 0 0 Z " fill="#F45E42" transform="translate(271,806)"/>
<path d="M0 0 C1.98 0 3.96 0 6 0 C6 0.33 6 0.66 6 1 C4.02 1 2.04 1 0 1 C0 0.67 0 0.34 0 0 Z " fill="#14436D" transform="translate(788,663)"/>
<path d="M0 0 C1.98 0 3.96 0 6 0 C6 0.33 6 0.66 6 1 C4.02 1 2.04 1 0 1 C0 0.67 0 0.34 0 0 Z " fill="#0C4574" transform="translate(748,663)"/>
<path d="M0 0 C1.98 0 3.96 0 6 0 C6 0.33 6 0.66 6 1 C4.02 1 2.04 1 0 1 C0 0.67 0 0.34 0 0 Z " fill="#0B4474" transform="translate(716,663)"/>
<path d="M0 0 C1.98 0 3.96 0 6 0 C6 0.33 6 0.66 6 1 C4.02 1 2.04 1 0 1 C0 0.67 0 0.34 0 0 Z " fill="#0B4675" transform="translate(688,663)"/>
<path d="M0 0 C1.98 0 3.96 0 6 0 C6 0.33 6 0.66 6 1 C4.02 1 2.04 1 0 1 C0 0.67 0 0.34 0 0 Z " fill="#EC6249" transform="translate(852,335)"/>
<path d="M0 0 C1.98 0 3.96 0 6 0 C6 0.33 6 0.66 6 1 C4.02 1 2.04 1 0 1 C0 0.67 0 0.34 0 0 Z " fill="#ED644A" transform="translate(837,335)"/>
<path d="M0 0 C1.98 0 3.96 0 6 0 C6 0.33 6 0.66 6 1 C4.02 1 2.04 1 0 1 C0 0.67 0 0.34 0 0 Z " fill="#ED6249" transform="translate(806,335)"/>
<path d="M0 0 C1.98 0 3.96 0 6 0 C6 0.33 6 0.66 6 1 C4.02 1 2.04 1 0 1 C0 0.67 0 0.34 0 0 Z " fill="#EF6249" transform="translate(723,335)"/>
<path d="M0 0 C1.98 0 3.96 0 6 0 C6 0.33 6 0.66 6 1 C4.02 1 2.04 1 0 1 C0 0.67 0 0.34 0 0 Z " fill="#EE6248" transform="translate(684,335)"/>
<path d="M0 0 C1.98 0 3.96 0 6 0 C6 0.33 6 0.66 6 1 C4.02 1 2.04 1 0 1 C0 0.67 0 0.34 0 0 Z " fill="#F26248" transform="translate(500,335)"/>
<path d="M0 0 C1.98 0 3.96 0 6 0 C6 0.33 6 0.66 6 1 C4.02 1 2.04 1 0 1 C0 0.67 0 0.34 0 0 Z " fill="#F3634A" transform="translate(484,335)"/>
<path d="M0 0 C1.65 0 3.3 0 5 0 C5 0.33 5 0.66 5 1 C3.35 1 1.7 1 0 1 C0 0.67 0 0.34 0 0 Z " fill="#1A456B" transform="translate(576,806)"/>
<path d="M0 0 C1.65 0 3.3 0 5 0 C5 0.33 5 0.66 5 1 C3.35 1 1.7 1 0 1 C0 0.67 0 0.34 0 0 Z " fill="#EE5E43" transform="translate(336,806)"/>
<path d="M0 0 C1.65 0 3.3 0 5 0 C5 0.33 5 0.66 5 1 C3.35 1 1.7 1 0 1 C0 0.67 0 0.34 0 0 Z " fill="#F35E42" transform="translate(304,806)"/>
<path d="M0 0 C1.65 0 3.3 0 5 0 C5 0.33 5 0.66 5 1 C3.35 1 1.7 1 0 1 C0 0.67 0 0.34 0 0 Z " fill="#F35E43" transform="translate(288,806)"/>
<path d="M0 0 C1.65 0 3.3 0 5 0 C5 0.33 5 0.66 5 1 C3.35 1 1.7 1 0 1 C0 0.67 0 0.34 0 0 Z " fill="#0B4474" transform="translate(707,663)"/>
<path d="M0 0 C1.65 0 3.3 0 5 0 C5 0.33 5 0.66 5 1 C3.35 1 1.7 1 0 1 C0 0.67 0 0.34 0 0 Z " fill="#EB634A" transform="translate(871,335)"/>
<path d="M0 0 C1.65 0 3.3 0 5 0 C5 0.33 5 0.66 5 1 C3.35 1 1.7 1 0 1 C0 0.67 0 0.34 0 0 Z " fill="#EC634A" transform="translate(844,335)"/>
<path d="M0 0 C1.65 0 3.3 0 5 0 C5 0.33 5 0.66 5 1 C3.35 1 1.7 1 0 1 C0 0.67 0 0.34 0 0 Z " fill="#ED6349" transform="translate(821,335)"/>
<path d="M0 0 C1.65 0 3.3 0 5 0 C5 0.33 5 0.66 5 1 C3.35 1 1.7 1 0 1 C0 0.67 0 0.34 0 0 Z " fill="#EE634A" transform="translate(797,335)"/>
<path d="M0 0 C1.65 0 3.3 0 5 0 C5 0.33 5 0.66 5 1 C3.35 1 1.7 1 0 1 C0 0.67 0 0.34 0 0 Z " fill="#F06248" transform="translate(733,335)"/>
<path d="M0 0 C1.65 0 3.3 0 5 0 C5 0.33 5 0.66 5 1 C3.35 1 1.7 1 0 1 C0 0.67 0 0.34 0 0 Z " fill="#F36349" transform="translate(494,335)"/>
<path d="M0 0 C1.65 0 3.3 0 5 0 C5 0.33 5 0.66 5 1 C3.35 1 1.7 1 0 1 C0 0.67 0 0.34 0 0 Z " fill="#FA6146" transform="translate(339,335)"/>
<path d="M0 0 C4 1 4 1 4 1 Z " fill="#13436E" transform="translate(630,806)"/>
<path d="M0 0 C4 1 4 1 4 1 Z " fill="#17446D" transform="translate(590,806)"/>
<path d="M0 0 C4 1 4 1 4 1 Z " fill="#F35F44" transform="translate(193,806)"/>
<path d="M0 0 C4 1 4 1 4 1 Z " fill="#F05D41" transform="translate(144,806)"/>
<path d="M0 0 C0.99 0.495 0.99 0.495 2 1 C1.34 1.66 0.68 2.32 0 3 C0 2.01 0 1.02 0 0 Z " fill="#184168" transform="translate(677,800)"/>
<path d="M0 0 C1 4 1 4 1 4 Z " fill="#D66252" transform="translate(519,655)"/>
<path d="M0 0 C0.66 0.66 1.32 1.32 2 2 C1.01 2.495 1.01 2.495 0 3 C0 2.01 0 1.02 0 0 Z " fill="#F36047" transform="translate(216,531)"/>
<path d="M0 0 C1 4 1 4 1 4 Z " fill="#EC5E45" transform="translate(140,380)"/>
<path d="M0 0 C4 1 4 1 4 1 Z " fill="#E76249" transform="translate(896,335)"/>
<path d="M0 0 C4 1 4 1 4 1 Z " fill="#EE6549" transform="translate(783,335)"/>
<path d="M0 0 C4 1 4 1 4 1 Z " fill="#EE6249" transform="translate(661,335)"/>
<path d="M0 0 C4 1 4 1 4 1 Z " fill="#F4634A" transform="translate(458,335)"/>
<path d="M0 0 C3 1 3 1 3 1 Z " fill="#F05E42" transform="translate(154,806)"/>
<path d="M0 0 C3 1 3 1 3 1 Z " fill="#F05D41" transform="translate(138,806)"/>
<path d="M0 0 C3 1 3 1 3 1 Z " fill="#ED5C41" transform="translate(130,806)"/>
<path d="M0 0 C3 1 3 1 3 1 Z " fill="#F66449" transform="translate(368,672)"/>
<path d="M0 0 C3 1 3 1 3 1 Z " fill="#0F4371" transform="translate(772,663)"/>
<path d="M0 0 C3 1 3 1 3 1 Z " fill="#0D4574" transform="translate(756,663)"/>
<path d="M0 0 C3 1 3 1 3 1 Z " fill="#0D4473" transform="translate(739,663)"/>
<path d="M0 0 C3 1 3 1 3 1 Z " fill="#0B4676" transform="translate(680,663)"/>
<path d="M0 0 C0.66 0.66 1.32 1.32 2 2 C1.34 2 0.68 2 0 2 C0 1.34 0 0.68 0 0 Z " fill="#3E4A68" transform="translate(900,414)"/>
<path d="M0 0 C3 1 3 1 3 1 Z " fill="#EA6349" transform="translate(879,335)"/>
<path d="M0 0 C3 1 3 1 3 1 Z " fill="#EB634A" transform="translate(863,335)"/>
<path d="M0 0 C3 1 3 1 3 1 Z " fill="#EC6448" transform="translate(832,335)"/>
<path d="M0 0 C3 1 3 1 3 1 Z " fill="#ED6349" transform="translate(816,335)"/>
<path d="M0 0 C3 1 3 1 3 1 Z " fill="#EF644B" transform="translate(789,335)"/>
<path d="M0 0 C3 1 3 1 3 1 Z " fill="#EE6449" transform="translate(752,335)"/>
<path d="M0 0 C3 1 3 1 3 1 Z " fill="#EF6349" transform="translate(747,335)"/>
<path d="M0 0 C3 1 3 1 3 1 Z " fill="#EF6248" transform="translate(742,335)"/>
<path d="M0 0 C3 1 3 1 3 1 Z " fill="#EE6349" transform="translate(672,335)"/>
<path d="M0 0 C3 1 3 1 3 1 Z " fill="#EE6149" transform="translate(624,335)"/>
<path d="M0 0 C3 1 3 1 3 1 Z " fill="#EE6249" transform="translate(608,335)"/>
<path d="M0 0 C3 1 3 1 3 1 Z " fill="#ED6249" transform="translate(596,335)"/>
<path d="M0 0 C3 1 3 1 3 1 Z " fill="#EE634B" transform="translate(571,335)"/>
<path d="M0 0 C3 1 3 1 3 1 Z " fill="#F66349" transform="translate(421,335)"/>
<path d="M0 0 C3 1 3 1 3 1 Z " fill="#F66147" transform="translate(407,335)"/>
<path d="M0 0 C3 1 3 1 3 1 Z " fill="#F76244" transform="translate(368,335)"/>
<path d="M0 0 C0.66 0 1.32 0 2 0 C1.67 0.66 1.34 1.32 1 2 C0.67 1.34 0.34 0.68 0 0 Z " fill="#EE5E46" transform="translate(178,281)"/>
<path d="M0 0 C2 1 2 1 2 1 Z " fill="#13446D" transform="translate(635,806)"/>
<path d="M0 0 C2 1 2 1 2 1 Z " fill="#14446E" transform="translate(627,806)"/>
<path d="M0 0 C2 1 2 1 2 1 Z " fill="#14456F" transform="translate(624,806)"/>
<path d="M0 0 C2 1 2 1 2 1 Z " fill="#14446D" transform="translate(611,806)"/>
<path d="M0 0 C2 1 2 1 2 1 Z " fill="#15446D" transform="translate(603,806)"/>
<path d="M0 0 C2 1 2 1 2 1 Z " fill="#1C436A" transform="translate(571,806)"/>
<path d="M0 0 C2 1 2 1 2 1 Z " fill="#F05F43" transform="translate(345,806)"/>
<path d="M0 0 C2 1 2 1 2 1 Z " fill="#F15F41" transform="translate(315,806)"/>
<path d="M0 0 C2 1 2 1 2 1 Z " fill="#F35E41" transform="translate(312,806)"/>
<path d="M0 0 C2 1 2 1 2 1 Z " fill="#F45E42" transform="translate(267,806)"/>
<path d="M0 0 C2 1 2 1 2 1 Z " fill="#F45D43" transform="translate(251,806)"/>
<path d="M0 0 C2 1 2 1 2 1 Z " fill="#F45E42" transform="translate(248,806)"/>
<path d="M0 0 C2 1 2 1 2 1 Z " fill="#F45E42" transform="translate(241,806)"/>
<path d="M0 0 C2 1 2 1 2 1 Z " fill="#F35E43" transform="translate(227,806)"/>
<path d="M0 0 C2 1 2 1 2 1 Z " fill="#F55E40" transform="translate(224,806)"/>
<path d="M0 0 C2 1 2 1 2 1 Z " fill="#F35E41" transform="translate(219,806)"/>
<path d="M0 0 C2 1 2 1 2 1 Z " fill="#F35F41" transform="translate(179,806)"/>
<path d="M0 0 C2 1 2 1 2 1 Z " fill="#EB5A40" transform="translate(115,806)"/>
<path d="M0 0 C2 1 2 1 2 1 Z " fill="#F05E43" transform="translate(353,805)"/>
<path d="M0 0 C2 1 2 1 2 1 Z " fill="#F05E45" transform="translate(364,804)"/>
<path d="M0 0 C2 1 2 1 2 1 Z " fill="#F06044" transform="translate(394,797)"/>
<path d="M0 0 C2 1 2 1 2 1 Z " fill="#10426F" transform="translate(784,663)"/>
<path d="M0 0 C2 1 2 1 2 1 Z " fill="#124571" transform="translate(777,663)"/>
<path d="M0 0 C2 1 2 1 2 1 Z " fill="#0C4575" transform="translate(744,663)"/>
<path d="M0 0 C2 1 2 1 2 1 Z " fill="#0C4473" transform="translate(736,663)"/>
<path d="M0 0 C2 1 2 1 2 1 Z " fill="#0B4576" transform="translate(732,663)"/>
<path d="M0 0 C2 1 2 1 2 1 Z " fill="#0B4475" transform="translate(728,663)"/>
<path d="M0 0 C2 1 2 1 2 1 Z " fill="#0B4374" transform="translate(724,663)"/>
<path d="M0 0 C2 1 2 1 2 1 Z " fill="#0B4373" transform="translate(704,663)"/>
<path d="M0 0 C2 1 2 1 2 1 Z " fill="#0B4478" transform="translate(684,663)"/>
<path d="" fill="#FC6248" transform="translate(0,0)"/>
<path d="M0 0 C2 1 2 1 2 1 Z " fill="#FD6448" transform="translate(369,597)"/>
<path d="" fill="#D96354" transform="translate(0,0)"/>
<path d="M0 0 C2 1 2 1 2 1 Z " fill="#F96247" transform="translate(285,564)"/>
<path d="" fill="#ED634D" transform="translate(0,0)"/>
<path d="M0 0 C2 1 2 1 2 1 Z " fill="#F0644B" transform="translate(422,480)"/>
<path d="M0 0 C2 1 2 1 2 1 Z " fill="#F1644B" transform="translate(405,472)"/>
<path d="" fill="#EE5E44" transform="translate(0,0)"/>
<path d="M0 0 C2 1 2 1 2 1 Z " fill="#F36248" transform="translate(299,432)"/>
<path d="M0 0 C2 1 2 1 2 1 Z " fill="#364A70" transform="translate(640,411)"/>
<path d="M0 0 C2 1 2 1 2 1 Z " fill="#E2624A" transform="translate(912,335)"/>
<path d="M0 0 C2 1 2 1 2 1 Z " fill="#E86049" transform="translate(908,335)"/>
<path d="M0 0 C2 1 2 1 2 1 Z " fill="#E9614A" transform="translate(901,335)"/>
<path d="M0 0 C2 1 2 1 2 1 Z " fill="#EE624B" transform="translate(868,335)"/>
<path d="M0 0 C2 1 2 1 2 1 Z " fill="#EE6247" transform="translate(827,335)"/>
<path d="M0 0 C2 1 2 1 2 1 Z " fill="#ED6449" transform="translate(776,335)"/>
<path d="M0 0 C2 1 2 1 2 1 Z " fill="#EE634A" transform="translate(756,335)"/>
<path d="M0 0 C2 1 2 1 2 1 Z " fill="#ED6247" transform="translate(720,335)"/>
<path d="M0 0 C2 1 2 1 2 1 Z " fill="#EF6347" transform="translate(712,335)"/>
<path d="M0 0 C2 1 2 1 2 1 Z " fill="#EE6149" transform="translate(676,335)"/>
<path d="M0 0 C2 1 2 1 2 1 Z " fill="#EE624A" transform="translate(638,335)"/>
<path d="M0 0 C2 1 2 1 2 1 Z " fill="#EF6249" transform="translate(621,335)"/>
<path d="M0 0 C2 1 2 1 2 1 Z " fill="#EE6148" transform="translate(616,335)"/>
<path d="M0 0 C2 1 2 1 2 1 Z " fill="#EE6148" transform="translate(612,335)"/>
<path d="M0 0 C2 1 2 1 2 1 Z " fill="#ED6148" transform="translate(600,335)"/>
<path d="M0 0 C2 1 2 1 2 1 Z " fill="#F06149" transform="translate(576,335)"/>
<path d="M0 0 C2 1 2 1 2 1 Z " fill="#F06348" transform="translate(552,335)"/>
<path d="M0 0 C2 1 2 1 2 1 Z " fill="#EF6449" transform="translate(544,335)"/>
<path d="M0 0 C2 1 2 1 2 1 Z " fill="#F26249" transform="translate(534,335)"/>
<path d="M0 0 C2 1 2 1 2 1 Z " fill="#F56547" transform="translate(416,335)"/>
<path d="M0 0 C2 1 2 1 2 1 Z " fill="#F66047" transform="translate(399,335)"/>
<path d="M0 0 C2 1 2 1 2 1 Z " fill="#F86045" transform="translate(372,335)"/>
<path d="M0 0 C2 1 2 1 2 1 Z " fill="#EE6144" transform="translate(494,202)"/>
<path d="" fill="#682D21" transform="translate(0,0)"/>
<path d="" fill="#264869" transform="translate(0,0)"/>
<path d="" fill="#2E4666" transform="translate(0,0)"/>
<path d="" fill="#1A4167" transform="translate(0,0)"/>
<path d="" fill="#16436C" transform="translate(0,0)"/>
<path d="" fill="#14426C" transform="translate(0,0)"/>
<path d="" fill="#14436D" transform="translate(0,0)"/>
<path d="" fill="#15436E" transform="translate(0,0)"/>
<path d="" fill="#13446F" transform="translate(0,0)"/>
<path d="" fill="#14456F" transform="translate(0,0)"/>
<path d="" fill="#15446E" transform="translate(0,0)"/>
<path d="" fill="#154570" transform="translate(0,0)"/>
<path d="" fill="#1F456B" transform="translate(0,0)"/>
<path d="" fill="#26486A" transform="translate(0,0)"/>
<path d="" fill="#F25E42" transform="translate(0,0)"/>
<path d="" fill="#F25E41" transform="translate(0,0)"/>
<path d="" fill="#F36043" transform="translate(0,0)"/>
<path d="" fill="#F05D41" transform="translate(0,0)"/>
<path d="" fill="#F35D42" transform="translate(0,0)"/>
<path d="" fill="#F15E42" transform="translate(0,0)"/>
<path d="" fill="#F65F43" transform="translate(0,0)"/>
<path d="" fill="#F65F42" transform="translate(0,0)"/>
<path d="" fill="#F45E43" transform="translate(0,0)"/>
<path d="" fill="#F46043" transform="translate(0,0)"/>
<path d="" fill="#F45E43" transform="translate(0,0)"/>
<path d="" fill="#F55E42" transform="translate(0,0)"/>
<path d="" fill="#F35E42" transform="translate(0,0)"/>
<path d="" fill="#F45E43" transform="translate(0,0)"/>
<path d="" fill="#F35F42" transform="translate(0,0)"/>
<path d="" fill="#F55E43" transform="translate(0,0)"/>
<path d="" fill="#F25E44" transform="translate(0,0)"/>
<path d="" fill="#F35E42" transform="translate(0,0)"/>
<path d="" fill="#F05D41" transform="translate(0,0)"/>
<path d="" fill="#F05D41" transform="translate(0,0)"/>
<path d="" fill="#ED5B41" transform="translate(0,0)"/>
<path d="" fill="#E9593E" transform="translate(0,0)"/>
<path d="" fill="#E5583E" transform="translate(0,0)"/>
<path d="" fill="#E2583D" transform="translate(0,0)"/>
<path d="" fill="#EE5E44" transform="translate(0,0)"/>
<path d="" fill="#1A4068" transform="translate(0,0)"/>
<path d="" fill="#F26145" transform="translate(0,0)"/>
<path d="" fill="#14426E" transform="translate(0,0)"/>
<path d="" fill="#13446F" transform="translate(0,0)"/>
<path d="" fill="#F05F43" transform="translate(0,0)"/>
<path d="" fill="#EF5F45" transform="translate(0,0)"/>
<path d="" fill="#ED6046" transform="translate(0,0)"/>
<path d="" fill="#EB5E42" transform="translate(0,0)"/>
<path d="" fill="#0F4472" transform="translate(0,0)"/>
<path d="" fill="#F16448" transform="translate(0,0)"/>
<path d="" fill="#EF6649" transform="translate(0,0)"/>
<path d="" fill="#0B4173" transform="translate(0,0)"/>
<path d="" fill="#E86349" transform="translate(0,0)"/>
<path d="" fill="#0D4373" transform="translate(0,0)"/>
<path d="" fill="#EC644A" transform="translate(0,0)"/>
<path d="" fill="#ED6044" transform="translate(0,0)"/>
<path d="" fill="#0C4474" transform="translate(0,0)"/>
<path d="" fill="#0D4374" transform="translate(0,0)"/>
<path d="" fill="#E4654D" transform="translate(0,0)"/>
<path d="" fill="#E4614D" transform="translate(0,0)"/>
<path d="" fill="#E0634E" transform="translate(0,0)"/>
<path d="" fill="#0B4475" transform="translate(0,0)"/>
<path d="" fill="#EC6248" transform="translate(0,0)"/>
<path d="" fill="#E35F4B" transform="translate(0,0)"/>
<path d="" fill="#F9634A" transform="translate(0,0)"/>
<path d="" fill="#D96152" transform="translate(0,0)"/>
<path d="" fill="#134471" transform="translate(0,0)"/>
<path d="" fill="#0E4371" transform="translate(0,0)"/>
<path d="" fill="#0C4675" transform="translate(0,0)"/>
<path d="" fill="#D36352" transform="translate(0,0)"/>
<path d="" fill="#FB644A" transform="translate(0,0)"/>
<path d="" fill="#17436C" transform="translate(0,0)"/>
<path d="" fill="#FB6547" transform="translate(0,0)"/>
<path d="" fill="#194770" transform="translate(0,0)"/>
<path d="" fill="#FC6248" transform="translate(0,0)"/>
<path d="" fill="#FA6247" transform="translate(0,0)"/>
<path d="" fill="#154470" transform="translate(0,0)"/>
<path d="" fill="#FD6247" transform="translate(0,0)"/>
<path d="" fill="#F96348" transform="translate(0,0)"/>
<path d="" fill="#FA6349" transform="translate(0,0)"/>
<path d="" fill="#FA6449" transform="translate(0,0)"/>
<path d="" fill="#FB6146" transform="translate(0,0)"/>
<path d="" fill="#FA6446" transform="translate(0,0)"/>
<path d="" fill="#FA6445" transform="translate(0,0)"/>
<path d="" fill="#F96247" transform="translate(0,0)"/>
<path d="" fill="#E46751" transform="translate(0,0)"/>
<path d="" fill="#F66146" transform="translate(0,0)"/>
<path d="" fill="#FA6448" transform="translate(0,0)"/>
<path d="" fill="#0D4778" transform="translate(0,0)"/>
<path d="" fill="#0D4577" transform="translate(0,0)"/>
<path d="" fill="#E9634D" transform="translate(0,0)"/>
<path d="" fill="#F86248" transform="translate(0,0)"/>
<path d="" fill="#F76248" transform="translate(0,0)"/>
<path d="" fill="#E46753" transform="translate(0,0)"/>
<path d="" fill="#DF6551" transform="translate(0,0)"/>
<path d="" fill="#E46650" transform="translate(0,0)"/>
<path d="" fill="#E06652" transform="translate(0,0)"/>
<path d="" fill="#E36751" transform="translate(0,0)"/>
<path d="" fill="#F45F44" transform="translate(0,0)"/>
<path d="" fill="#F46044" transform="translate(0,0)"/>
<path d="" fill="#EE634B" transform="translate(0,0)"/>
<path d="" fill="#EF664B" transform="translate(0,0)"/>
<path d="" fill="#EF664E" transform="translate(0,0)"/>
<path d="" fill="#F36245" transform="translate(0,0)"/>
<path d="" fill="#F36045" transform="translate(0,0)"/>
<path d="" fill="#F26146" transform="translate(0,0)"/>
<path d="" fill="#F26246" transform="translate(0,0)"/>
<path d="" fill="#124574" transform="translate(0,0)"/>
<path d="" fill="#F15F45" transform="translate(0,0)"/>
<path d="" fill="#F8654A" transform="translate(0,0)"/>
<path d="" fill="#F05D44" transform="translate(0,0)"/>
<path d="" fill="#F36449" transform="translate(0,0)"/>
<path d="" fill="#F36449" transform="translate(0,0)"/>
<path d="" fill="#EF5E45" transform="translate(0,0)"/>
<path d="" fill="#1F466D" transform="translate(0,0)"/>
<path d="" fill="#ED5E45" transform="translate(0,0)"/>
<path d="" fill="#204872" transform="translate(0,0)"/>
<path d="" fill="#1F4870" transform="translate(0,0)"/>
<path d="" fill="#F9634A" transform="translate(0,0)"/>
<path d="" fill="#474E68" transform="translate(0,0)"/>
<path d="" fill="#454D69" transform="translate(0,0)"/>
<path d="" fill="#374A6E" transform="translate(0,0)"/>
<path d="" fill="#354A72" transform="translate(0,0)"/>
<path d="" fill="#374A6E" transform="translate(0,0)"/>
<path d="" fill="#384B72" transform="translate(0,0)"/>
<path d="" fill="#364B71" transform="translate(0,0)"/>
<path d="" fill="#3B4C6E" transform="translate(0,0)"/>
<path d="" fill="#ED5D44" transform="translate(0,0)"/>
<path d="" fill="#F86448" transform="translate(0,0)"/>
<path d="" fill="#FB6249" transform="translate(0,0)"/>
<path d="" fill="#DF5E48" transform="translate(0,0)"/>
<path d="" fill="#E9604A" transform="translate(0,0)"/>
<path d="" fill="#E9634A" transform="translate(0,0)"/>
<path d="" fill="#EC634B" transform="translate(0,0)"/>
<path d="" fill="#ED654A" transform="translate(0,0)"/>
<path d="" fill="#EB6249" transform="translate(0,0)"/>
<path d="" fill="#EE634A" transform="translate(0,0)"/>
<path d="" fill="#ED614B" transform="translate(0,0)"/>
<path d="" fill="#EF634A" transform="translate(0,0)"/>
<path d="" fill="#EE6449" transform="translate(0,0)"/>
<path d="" fill="#EE644C" transform="translate(0,0)"/>
<path d="" fill="#EF6548" transform="translate(0,0)"/>
<path d="" fill="#EE6149" transform="translate(0,0)"/>
<path d="" fill="#EE6148" transform="translate(0,0)"/>
<path d="" fill="#F2614A" transform="translate(0,0)"/>
<path d="" fill="#F06049" transform="translate(0,0)"/>
<path d="" fill="#EF614A" transform="translate(0,0)"/>
<path d="" fill="#F06249" transform="translate(0,0)"/>
<path d="" fill="#F16349" transform="translate(0,0)"/>
<path d="" fill="#F05F49" transform="translate(0,0)"/>
<path d="" fill="#EE614B" transform="translate(0,0)"/>
<path d="" fill="#EC6148" transform="translate(0,0)"/>
<path d="" fill="#EF6249" transform="translate(0,0)"/>
<path d="" fill="#EE6048" transform="translate(0,0)"/>
<path d="" fill="#EF6249" transform="translate(0,0)"/>
<path d="" fill="#EF6148" transform="translate(0,0)"/>
<path d="" fill="#EE644B" transform="translate(0,0)"/>
<path d="" fill="#F16249" transform="translate(0,0)"/>
<path d="" fill="#F1644A" transform="translate(0,0)"/>
<path d="" fill="#F26449" transform="translate(0,0)"/>
<path d="" fill="#F26247" transform="translate(0,0)"/>
<path d="" fill="#F36346" transform="translate(0,0)"/>
<path d="" fill="#F26149" transform="translate(0,0)"/>
<path d="" fill="#F3624A" transform="translate(0,0)"/>
<path d="" fill="#F36148" transform="translate(0,0)"/>
<path d="" fill="#F5644B" transform="translate(0,0)"/>
<path d="" fill="#F56445" transform="translate(0,0)"/>
<path d="" fill="#F66249" transform="translate(0,0)"/>
<path d="" fill="#F66247" transform="translate(0,0)"/>
<path d="" fill="#F76246" transform="translate(0,0)"/>
<path d="" fill="#F6604A" transform="translate(0,0)"/>
<path d="" fill="#F86147" transform="translate(0,0)"/>
<path d="" fill="#F66348" transform="translate(0,0)"/>
<path d="" fill="#F86447" transform="translate(0,0)"/>
<path d="" fill="#FA6245" transform="translate(0,0)"/>
<path d="" fill="#F06045" transform="translate(0,0)"/>
<path d="" fill="#EE5F46" transform="translate(0,0)"/>
<path d="" fill="#EB624B" transform="translate(0,0)"/>
<path d="" fill="#EE5F45" transform="translate(0,0)"/>
<path d="" fill="#EE6148" transform="translate(0,0)"/>
<path d="" fill="#ED5F47" transform="translate(0,0)"/>
<path d="" fill="#F26348" transform="translate(0,0)"/>
<path d="" fill="#F26247" transform="translate(0,0)"/>
<path d="" fill="#EE6047" transform="translate(0,0)"/>
<path d="" fill="#EA6047" transform="translate(0,0)"/>
<path d="" fill="#F46349" transform="translate(0,0)"/>
<path d="" fill="#ED6248" transform="translate(0,0)"/>
<path d="" fill="#E96045" transform="translate(0,0)"/>
<path d="" fill="#EC6044" transform="translate(0,0)"/>
<path d="" fill="#ED6246" transform="translate(0,0)"/>
<path d="" fill="#EE6146" transform="translate(0,0)"/>
<path d="" fill="#ED6147" transform="translate(0,0)"/>
<path d="" fill="#EE6042" transform="translate(0,0)"/>
<path d="" fill="#EE6043" transform="translate(0,0)"/>
<path d="" fill="#EE6045" transform="translate(0,0)"/>
<path d="" fill="#EC6143" transform="translate(0,0)"/>
<path d="" fill="#EE5F45" transform="translate(0,0)"/>
<path d="" fill="#EE6043" transform="translate(0,0)"/>
<path d="" fill="#EE5F43" transform="translate(0,0)"/>
<path d="" fill="#EC5E42" transform="translate(0,0)"/>
</svg>
